<?xml version="1.0" encoding="UTF-8"?>
<svg id="Lag_1" data-name="Lag 1" xmlns="http://www.w3.org/2000/svg" viewBox="0 0 70.13 95.63">
  <defs>
    <style>
      .cls-1 {
        fill: #1c1c21;
      }
    </style>
  </defs>
  <path class="cls-1" d="m69.84,94.88c-4.07-.45-8.05-1.28-11.9-2.49-.81-.66-1.58-1.39-2.27-2.18-1.04-1.19-2.16-2.68-2.68-4.28.05-.04.08-.09.11-.16,1.06-3.17.51-6.88-.79-9.74-.7-1.55-.76-.41-.87-.1-1.17,3.39-1.26,6.99,1.01,9.77.04.05.08.09.11.12.48,1.6,1.54,3.11,2.56,4.32.59.69,1.22,1.34,1.89,1.94-.24-.08-.47-.16-.7-.24-3.28-1.95-5.97-4.19-8.55-6.72.05-.04.09-.1.11-.2.55-2.45-.13-4.95-1.28-7.12-.6-1.12-1.32-2.18-2.11-3.17-.38-.48-1.09-1.06-1.55-1.46-1.31-1.14-.83,2.33-.81,3,.03,1.35.29,2.89.68,4.19.65,2.16,2.04,3.91,4.17,4.64,1.64,2.1,3.83,4.01,6.32,5.7-1.43-.58-2.84-1.22-4.22-1.91-6.77-3.4-12.84-8.04-18.05-13.52-1.89-2.92-3.01-6.31-2.47-9.71,2.65-2.26,2.13-5.84,1.6-8.96,0-.03-.01-.07-.04-.09-.02-.02-.04-.03-.06-.04-.45-.16-1.5,1.49-1.63,1.69-.5.76-.92,1.58-1.2,2.45-.55,1.7-.43,3.51.67,4.97.04.08.09.14.14.18-.4,2.5.14,5.16,1.26,7.6-.03-.03-.05-.06-.08-.09-.99-1.95-4.11-6.23-4.97-9.81.19-.08,1.34-2.24,1.43-2.46.19-.44.35-.88.49-1.33.27-.85.5-1.75.56-2.66.06-.97-.21-1.89-.5-2.81-.29-.91-.75-1.75-1.2-2.59-.12-.22-.24-.44-.43-.6-.06-.05-.12-.09-.2-.08-.05,0-.1.03-.14.06-.16.13-.25.33-.33.52-.34.8-.69,1.6-.97,2.42-1.29,3.68-1.1,5.56.89,9.5.37,1.43.92,2.82,1.48,4.16.29.71.61,1.4.93,2.09-1.68-2.18-3.24-4.45-4.67-6.8-.74-1.22-1.46-2.48-2.14-3.76-.3-.62-.61-1.23-.94-1.83-2.24-4.55-3.96-9.41-4.56-14.53-.2-1.73-.29-3.47-.29-5.21.37-1.89,1.11-3.87,2.81-5.41,2.6-.25,4.59-1.41,5.78-2.97.61-.8,1.02-1.66,1.3-2.53.07-.23.7-2.1.09-2.3-.03-.01-.06-.02-.1-.02-.05,0-.09.02-.13.03-3.87,1.83-8.25,4.02-7.58,7.62,0,.01,0,.02.01.04-.93.83-1.64,1.77-2.12,2.77.18-3.95.72-7.91,1.3-11.85.24-1,.54-2,.91-3,.67-1.74,1.46-3.42,2.38-5.03.11.01.24-.02.42-.15,2.01-1.6,4.18-3.71,4.7-6.42.04-.2-.09-.39-.53-.26-2.91.86-4.35,3.41-4.88,6.33-.01.06,0,.13,0,.2-.4.7-.78,1.42-1.14,2.15-.26.45-.49.91-.72,1.37.63-2.34,1.1-4.72,1.4-7.16.02-.02.03-.04.05-.07,1.57-2.5,3.42-5.55,2.37-8.77-.22-.69-.56-1.35-.98-1.97-.15-.22-.35-.2-.57,0-2.42,1.39-3.02,4.11-2.63,6.8.13.87.32,1.77.62,2.61.08.23.39,1.15.73,1.44-.42,3.36-1.15,6.64-2.2,9.8.13-1.24.16-2.49.08-3.75.02-.19.04-.38.06-.57.05-.51.11-1.01.15-1.52.09-.99.14-2,.03-3.01-.17-1.56-1.05-2.96-2.06-4.27-.09-.12-.27-.1-.38-.02-.04.02-.08.05-.11.09-1.04,1.63-1.02,3.6-.43,5.46.22.7.52,1.39.85,2.07.35.7.71,1.44,1.24,2.05.08.09.17.19.28.25.04.96.02,2.32-.01,3.63-.13.05-2.14,11.94-2.03,17.72-.41-1.34-.93-2.64-1.55-3.88,0-.02-.01-.04-.01-.05-.03-.16-.05-.33-.07-.49-.04-.34-.07-.69-.1-1.04-.12-1.35-.2-2.73-.7-3.99-.32-.81-.79-1.51-1.41-2.13-.6-.6-1.21-1.16-2.02-1.5-.08-.03-.19-.06-.26,0-.05.04-.07.11-.08.17-.14.66-.3,1.3-.29,1.98.01.81.2,1.6.47,2.35.4,1.09,1.01,2.1,1.73,3.02.35.45.73.87,1.14,1.27.19.19.39.37.6.54.1.09.43.36.7.45.77,1.29,1.83,4.44,1.89,4.45.08,1.78.25,3.55.57,5.31.4,2.21.99,4.37,1.73,6.47-.98-1.23-2.02-2.35-3.13-3.3-.63-2.16-2.32-3.63-4.45-4.38-1.28-.45-2.81-.78-4.16-.87-.67-.04-4.1-.69-3.03.68.38.48.92,1.21,1.38,1.61.96.84,1.98,1.61,3.07,2.25,2.12,1.25,4.59,2.04,7.06,1.61.11-.02.17-.06.21-.1,1.45,1.62,2.79,3.28,4.02,5.07.47,1.15.99,2.27,1.53,3.39-.28-.3-.58-.6-.88-.88-1.17-1.08-2.62-2.21-4.2-2.76-.03-.04-.07-.08-.12-.12-2.67-2.39-6.27-2.47-9.71-1.46-.32.09-1.47.1.06.88,2.8,1.42,6.49,2.14,9.7,1.23.07-.02.13-.05.17-.1,1.57.6,3.01,1.79,4.15,2.88.54.52,1.04,1.07,1.51,1.65,1.08,2.07,2.26,4.08,3.49,6.01.56.88,1.15,1.75,1.76,2.61-.67-.37-1.37-.66-2.09-.84,0-.16-.87-1.02-1.2-1.24-.34-.22-.69-.41-1.04-.55-.71-.29-1.44-.42-2.16-.44-.73-.02-1.45.08-2.16.27-.35.09-.7.21-1.04.34-.17.06-.34.13-.51.21-.38.16-2.02.8-2.05,1.01-.02.18.68.29.81.31.04,0,.08.01.11.02,1.61.31,3.22.85,4.83,1.07.8.11,1.61.14,2.39.01.38-.06.76-.17,1.12-.32.13-.06.27-.12.4-.19,1.18.24,2.3.72,3.3,1.41,0-.02,0-.04-.01-.05,2.56,3.52,5.44,6.81,8.59,9.8-.4-.22-.8-.44-1.21-.65-1.29-.66-2.63-1.33-4.02-1.82-.04-.09-4.32-1.38-6.35-1.62-2.57-.31-6,.48-6.11.58-.05.05-.09.1-.11.16-.07.22,1.52,1.6,1.91,1.86.41.28.83.51,1.26.69.87.37,1.78.55,2.69.59.93.04,1.86-.06,2.77-.27.46-.1.91-.23,1.36-.38.22-.07,2.48-1.03,2.57-1.22,1.33.48,2.61,1.12,3.84,1.76.91.47,1.8.97,2.68,1.5.11.1.21.2.32.3,2.32,2.07,4.78,3.98,7.37,5.71-.05-.02-.1-.03-.16-.05-.37-.11-1.07-.3-1.48-.33-3.02-2.02-7.21-3.6-10.46-1.26-.25.12-.34.27-.18.44,2.9,3.03,6.69,2.13,10.44,1.42.37.07.76.1,1.11.18.71.17,1.39.44,2.11.58.05.01.1,0,.14,0,2.86,1.8,5.88,3.37,9,4.68-.75-.17-1.51-.32-2.27-.45-1.43-.24-2.91-.46-4.38-.51-.05-.04-.1-.08-.14-.11-.43-.3-.98-.45-1.43-.59-.47-.14-.95-.23-1.41-.27-.94-.08-1.86.03-2.74.27-.89.25-1.75.63-2.55,1.11-.4.24-.8.5-1.18.78-.19.14-.38.28-.56.43-.41.33-.84.64-1.21,1.05-.12.14-.34.31-.31.57.02.22.21.41.37.39.05,0,.1-.01.14-.02,2.04-.23,4.14-.18,6.16-.51,1.01-.17,1.99-.42,2.91-.87.45-.22.88-.48,1.28-.79.2-.16.4-.32.58-.51.07-.08.2-.2.28-.34.03-.06.06-.12.06-.19,0-.01,0-.02,0-.03,1.37.06,2.75.27,4.08.49,1.87.31,3.71.75,5.52,1.3,4.56,1.6,9.35,2.64,14.28,3,.48.03.69-.69.18-.75Zm-16.91-11.78c0,.14-.28.84-.32.98-.19-1.34-.4-3.87-.39-5.22.66.94.75,3.55.71,4.24Zm-1.43-4.92c.05,2.05.27,4.05.59,5.95-1.11-1.93-1.12-3.95-.59-5.95Zm-4.09,5.38c-.59-2.83-1.78-5.52-3.19-8.05,1.81,2.38,3.16,5.07,3.19,8.05Zm-1.27-2.26c-1.11-1.6-1.95-3.28-2.32-5.14,1.17,1.66,2.04,3.34,2.32,5.14Zm-1.63-2.08c.58,1.16,1.1,2.34,1.6,3.54-1.53-1.58-2.24-3.4-2.54-5.42.3.64.63,1.26.94,1.89Zm-1.34-.7c.72,2.08,1.83,4.03,3.25,5.69-2.11-1.21-2.94-3.36-3.25-5.69Zm-15.16-18.68c-.14,1.34-.18,2.83-.4,4.26-.47-1.44-.23-2.89.4-4.26Zm1.12-1.41c-.15,1.78-.43,3.62-1,5.48-.04-1.8.22-3.84,1-5.48Zm-.43,5.13c.36-1.64.7-3.28.87-4.94.22,1.64.16,3.28-.79,4.92-.03,0-.05,0-.08.02Zm.07,1c.51-1.15.84-2.34,1.21-3.45.16,1.16-.14,2.34-1.22,3.5,0-.01,0-.03.01-.04Zm-3.19-6.21c-.23-1.4-.27-2.75-.12-4.03.67,1.32.78,2.64.12,4.03Zm-.91,1.66c-.61-1.39-.53-4.46.01-5.99.33,1.48.33,4.55-.01,5.99Zm-.6-6.88c-.18.4-.58,3.64-.41,7.62-.14-.42-1.53-3.24.41-7.62Zm-5.12-25.53c-.76,1.13-1.82,2.25-2.4,3.41.19-1.4.76-2.45,2.4-3.41Zm2.99-1.43c-1.43,1.48-2.81,2.98-4.48,4.3.9-1.72,2.6-3.03,4.48-4.3Zm-3.31,4.03c1.36-1.26,2.09-2.3,3.95-3.85-.27,1.63-2.57,3.07-3.72,3.73-.08.04-.16.08-.24.12Zm3.64-2.1c-.78,1.38-2.02,2.55-3.99,3.22,1.13-1.15,2.77-2.12,3.99-3.22Zm-.31-19.08c-.9,1.05-1.76,2.41-2.95,3.87.4-1.67,1.31-3.05,2.95-3.87Zm.43.33c-.37,1.55-1.17,2.67-2.54,3.4.73-1.22,1.55-2.36,2.54-3.4Zm-3.24-3.21c.19-1.42.14-3.08-.13-4.62.97,1.69.79,3.2.13,4.62Zm-1.63-4.45c-.65,1.51-1.13,3.25-1.2,4.89-.47-1.88-.16-3.58,1.2-4.89Zm.54.45c-.35,2.17-.77,4.33-.97,6.54-.53-2.29-.07-4.67.97-6.54Zm.59.27c.31,2.24-.24,4.25-.96,6.27.13-2.21.49-4.27.96-6.27Zm-6.05,6.94c-.05,1.28.48,4.01.71,5.29-1-1.42-1.09-4-.71-5.29Zm.54.2c.62,1.27.93,2.62.6,4.22-.34-1.39-.56-2.78-.6-4.22Zm.64.03c.5.93.98,2.25.98,3.35,0,.6-.02.88-.21,1.43-.02-1.6-.3-3.21-.77-4.78Zm-4.06,20.46c-.8-.76-1.6-1.94-1.66-2.75.55.65,1.39,1.89,1.66,2.75Zm-3.08-2.43c.52,1.47,1.04,2.94,1.49,4.32-.89-1.33-1.51-2.79-1.49-4.32Zm.53-.13c.91,1.28,1.69,3.4,1.97,5.32-1.05-1.81-1.58-3.65-1.97-5.32Zm1.33,1.6c.82,1.4,1.33,2.27,1.58,4.1-.68-1.29-1.18-2.67-1.58-4.1Zm2.56,18.89c-1.59-1.5-3.49-2.69-5.54-3.51,2.32.41,4.42,1.35,5.54,3.51Zm-1.44-.38c-1.51-.43-2.33-1.13-3.46-1.76-.61-.34-1.22-.7-1.84-1.03,2,.37,3.72,1.36,5.3,2.79Zm-1.46-.04c-2.05-.48-3.34-1.2-5.03-2.55,1.79.53,3.46,1.36,5.03,2.55Zm-5.69-2.18c2.46,1.52,5.1,2.84,7.89,3.56-3.05-.01-5.75-1.35-7.89-3.56Zm7.32,8.8c-.14.33-3.3.02-4.33-.65,1.35.06,2.68.2,4.01.45-.14.03.39.07.33.2Zm-4.98-1.4c2.08-.25,4.1-.13,5.91.86-1.66-.06-3.72-.52-5.91-.86Zm14.19,13.04c-1.32-.13-2.41-.07-3.71-.33,1.24-.51,2.82-.44,3.71.33Zm.23.66c-1.5.09-3.18-.02-4.72-.31,1.64-.36,3.21-.28,4.72.31Zm-1.12.84c-.37-.03-.5-.07-1.16-.08-.8,0-2.2-.4-2.53-.54.33-.01,1.58.07,1.71.09.18.02.35.07.53.08,1.27.07,2.21.23,2.29.27-.17,0-.67.19-.84.18Zm-.96,8.13c.9-.2,1.64-.5,2.44-.56.46-.03,1.99.29,2.44.38.43.08.71.45,1.12.63-.42,0-1.03-.04-1.19-.06-.22-.03-.44-.08-.66-.11-.46-.06-.93-.11-1.39-.15-.46-.04-.93-.07-1.39-.09-.43-.02-.93-.12-1.36-.03Zm1.07,1.49c1.71-.2,2.87-.04,4.54.39-1.4.36-3.26.35-4.54-.39Zm-.22-.8c1.73-.27,3.89-.16,5.96.5-1.48.11-4.53-.12-5.96-.5Zm18.29,7.83c-1.5.06-3.26,0-4.97-.21,1.66-.54,3.35-.36,4.97.21Zm1.7,1.07c-2.16-.11-4.32-.3-6.43-.77,2.09-.12,4.47.05,6.43.77Zm-7.34-.17c1.44.53,2.9.87,4.27,1.16-1.49.41-2.94.03-4.27-1.16Zm.96-.08c2.25.22,4.29.53,6.18.71-1.98.32-4.07.25-6.18-.71Zm7.1,6.36c1.17-.83,2.55-1.13,3.96-.8-1.25.37-2.59.58-3.96.8Zm-2.23,1.57c1.29-.81,5.03-1.94,6.64-1.68-1.4.4-5.2,1.43-6.64,1.68Zm5.43-.15c-.47.12-1.06.29-1.51.33-.43.05-2.38.32-2.83.28.4-.13,1.72-.61,1.87-.63.22-.04.68-.21.9-.25.46-.08.98-.2,1.44-.3.45-.1.61-.05,1.05-.18.42-.12.93-.17,1.3-.39-.79.46-1.34.92-2.23,1.14Z"/>
</svg>