<?xml version="1.0" encoding="UTF-8"?>
<svg id="Lag_1" data-name="Lag 1" xmlns="http://www.w3.org/2000/svg" viewBox="0 0 141.11 140.7">
  <defs>
    <style>
      .cls-1 {
        fill: #1c1c21;
      }
    </style>
  </defs>
  <path class="cls-1" d="m.54,123.06c8.04,2.23,16.23,3.29,24.39,3.34,3.19.16,6.37.51,9.51,1.08,2.24.41,4.55.85,6.77,1.54,0,.02-.02.03-.03.04-.04.1-.04.21-.02.33.04.26.18.52.25.69.17.41.4.78.63,1.15.46.73.99,1.39,1.58,1.99,1.2,1.23,2.63,2.2,4.13,3.03,3.02,1.67,6.39,2.79,9.5,4.31.07.04.15.07.22.11.24.12.64-.08.8-.42.19-.4-.05-.8-.17-1.08-.35-.86-.85-1.6-1.32-2.36-.21-.34-.42-.68-.65-1-.45-.66-.93-1.3-1.43-1.91-1.01-1.22-2.14-2.31-3.43-3.21-1.25-.88-2.65-1.58-4.2-1.99-.77-.2-1.57-.33-2.4-.38-.8-.04-1.74-.11-2.6.12-.08.02-.18.06-.28.1-2.36-.77-4.85-1.25-7.25-1.69-1.28-.23-2.57-.42-3.85-.58,5.71-.3,11.39-1.09,16.96-2.32.06.04.13.07.22.08,1.22.18,2.46.13,3.69.27.6.07,1.24.24,1.87.34,5.55,3.25,11.06,6.83,17.39,3.66.35-.17.28-.46-.04-.8-3.83-5.56-11.39-5.43-17.34-3.94-.66-.17-1.89-.28-2.54-.31-.1,0-.19,0-.28-.01,5.1-1.28,10.1-2.91,14.95-4.88.23-.09.46-.2.68-.29,1.69-.35,3.39-.64,5.11-.87,2.32-.31,4.72-.6,7.1-.61.04.35,3.08,3.15,3.39,3.4.63.49,1.28.95,1.95,1.38,1.34.84,2.75,1.54,4.25,2,1.47.45,3.01.68,4.61.59.79-.05,1.59-.17,2.4-.38.77-.2,4.09-1.49,4.1-1.88,0-.11-.03-.21-.08-.32-.12-.23-5.12-3.42-9.38-4.4-3.37-.77-10.89-1.16-11.01-1.03-2.48,0-5,.29-7.42.61-.77.1-1.53.22-2.29.35,6.7-2.97,13.13-6.55,19.21-10.69-.02.03-.03.05-.05.08,1.98-.53,4.04-.65,6.05-.37.17.19.35.37.53.54.49.45,1.03.83,1.6,1.15,1.17.65,2.47,1.06,3.81,1.34,2.69.56,5.55.61,8.29,1.04.06.01.13.02.19.03.21.04,1.39.27,1.46-.03.08-.35-2.17-2.3-2.68-2.77-.23-.21-.45-.42-.69-.62-.47-.4-.96-.78-1.47-1.13-1.01-.69-2.1-1.26-3.28-1.65-1.15-.38-2.38-.58-3.68-.52-.64.03-1.3.12-1.97.28-.64.16-2.5,1.03-2.6,1.28-1.25-.12-2.53-.07-3.8.15,1.44-1.02,2.87-2.06,4.27-3.14,3.06-2.37,6.07-4.89,8.96-7.57,1.07-.65,2.18-1.24,3.33-1.76,2.43-1.09,5.39-2.16,8.22-2.21.04.1.11.18.21.25,4.58,3.27,10.85,4.22,16.11,3.55,2.86-.37,1.04-1.03.59-1.36-4.89-3.56-10.66-5.49-16.26-3.2-.1.04-.18.08-.26.12-2.82-.02-5.77.95-8.24,2-.65.27-1.28.58-1.9.89,1.5-1.46,2.96-2.96,4.36-4.51,2.98-2.15,6.05-4.03,9.27-5.78.04.1.11.19.27.28,3.68,2.09,8.05,2.24,12.13,1.46,2.11-.41,4.16-1.05,6.16-1.84.96-.38,2.24-1.23,3.11-1.78,2.48-1.56-3.35-2.49-4.43-2.79-2.19-.63-4.81-.96-7.1-.97-3.8-.03-7.33,1.36-9.55,4.43-2.3.88-4.59,2.06-6.85,3.46,2.37-2.93,4.53-6.02,6.42-9.31,1.5-2.61,2.79-5.32,3.92-8.11.1.02,3.58-4.38,5.53-6,.48,0,1.15-.24,1.37-.32.43-.16.85-.34,1.26-.52.88-.4,1.72-.86,2.53-1.37,1.67-1.05,3.21-2.32,4.47-3.82.86-1.03,1.6-2.19,2.08-3.46.4-1.07.51-2.17.66-3.31.01-.1.03-.22-.04-.31-.09-.13-.27-.14-.42-.13-1.49.07-2.78.62-4.06,1.23-1.33.63-2.48,1.47-3.45,2.58-1.51,1.73-2.42,3.87-3.38,5.95-.24.53-.49,1.07-.75,1.59-.13.25-.25.5-.39.74-.01.02-.03.05-.05.08-1.69,1.63-3.25,3.4-4.66,5.29,3.46-9.12,7.03-29.16,6.85-29.31.69-2.09,1.43-4.27,2.04-5.77.21-.03.41-.13.59-.23,1.19-.68,2.18-1.65,3.13-2.56.92-.88,1.78-1.81,2.53-2.8,1.98-2.62,3.14-5.74,2.41-8.92-.02-.09-.07-.15-.13-.21-.13-.19-.4-.32-.61-.18-2.34,1.51-4.53,3.22-5.69,5.61-.75,1.54-1.24,3.16-1.66,4.79-.22.83-.41,1.67-.62,2.5-.08.31-.16.62-.24.94-.85,1.96-1.51,3.97-2,6.01.13-5.63.83-11.25,2.07-16.83.71-.27,1.72-1.55,1.98-1.87.95-1.17,1.77-2.49,2.47-3.8,2.15-4.06,2.73-8.72-.32-12.3-.24-.42-.55-.58-.91-.31-1.01.75-1.92,1.61-2.67,2.58-3.5,4.52-2.29,10.41-1.21,15.28.01.05.03.09.04.14-.91,4.04-1.51,8.1-1.84,12.17-.1-.85-.21-1.71-.36-2.58-.16-1.37-.35-2.72-.59-4.07.06-.1.11-.21.13-.31.81-4.94-.04-9.81-4.17-12.83-.61-.45-.93-.23-.98.12-.7,4.6,1.54,9.18,3.83,12.87.2.31.4.44.58.48.53,3.09.84,6.21.92,9.35.02,1.78-.07,3.54-.26,5.28-1.3,6.58-2.7,13.18-4.66,19.56-.21-1.86-.79-3.75-1.8-5.6.01-.02.03-.03.04-.05,3.11-5.33-2.62-11.3-7.73-16.41-.05-.05-.11-.1-.18-.13-.06-.02-.12-.03-.17-.03-1.09-.03-1.16,3.31-1.17,3.71-.04,1.55.12,3.15.64,4.76,1.01,3.14,3.5,6.12,7.5,8,1.84,3.42,1.88,6.98,1.4,10.2-1,2.77-2.12,5.49-3.42,8.12-3.85,7.8-9.34,14.55-15.49,20.5-.85.77-1.7,1.56-2.53,2.37-1.81,1.65-3.66,3.23-5.53,4.76-3.6,2.93-7.37,5.65-11.28,8.16.91-.91,1.81-1.83,2.67-2.79,1.64-1.82,3.31-3.72,4.71-5.77,5.39-5.13,6.76-8.01,6.81-14.59.01-1.46-.08-2.92-.17-4.39-.02-.35-.05-.72-.24-1.01-.05-.08-.11-.15-.19-.18-.11-.05-.25-.02-.36.02-.39.14-.72.42-1.03.7-1.19,1.08-2.4,2.16-3.37,3.43-.99,1.3-1.94,2.6-2.39,4.19-.42,1.47-.56,3.04-.62,4.54-.03.79-.02,1.59.03,2.39.02.4.62,4.49.88,4.72-3.39,5.2-10.78,10.23-13.46,12.77-.06.03-.12.07-.18.1,3.16-3.25,5.53-7.17,6.31-11.36.1-.04.2-.1.32-.2,2.57-1.7,3.8-4.51,3.89-7.52.05-1.54-.17-3.08-.52-4.58-.09-.39-.83-3.61-1.63-3.61-.04,0-.08,0-.12.02-.05.02-.08.07-.11.12-2.62,4.64-5.48,10.04-2.55,15.14-1.06,5.7-4.77,10.46-9.44,14.03-11.39,5.75-23.68,9.66-36.36,11.23-2.59.32-5.18.53-7.79.64,4.92-1.28,9.49-3.06,13.28-5.47,3.79.05,7.01-1.95,9.26-5.01,1.35-1.84,2.65-4.14,3.46-6.27.4-1.05,3.14-6.28.41-5.22-.96.37-2.41.89-3.29,1.43-1.82,1.13-3.57,2.39-5.15,3.84-3.07,2.8-5.56,6.39-6.08,10.59-.02.18,0,.3.06.39-5.53,2.55-11.08,4.58-17.4,5.82-.42,0-.84-.01-1.26-.02,1.41-.57,2.79-1.24,4.11-2.01,2.31-1.35,4.86-3.13,6.53-5.41.08-.03.16-.08.25-.13,5.18-3.13,7.08-8.9,7.15-14.95,0-.57.56-2.41-1.44-.34-3.68,3.81-6.66,9.4-6.78,15.03,0,.12.03.23.08.32-1.74,2.24-4.37,3.97-6.69,5.27-1.56.87-3.18,1.58-4.85,2.18-6.8-.26-13.6-1.2-20.32-2.8-.85-.2-.92,1.07-.14,1.29Zm37.24-16.74c-.76,2.15-2.53,6.05-3.59,8.07.02-.24-.02-1.5.05-1.73.33-1.12,1.95-5.22,3.54-6.33Zm-2.78,8.44c1.57-2.83,3.06-5.88,4.31-9.12-.29,3.49-1.44,6.68-4.31,9.12Zm17.4-9.22c-3.67,3.22-7.09,6.82-9.64,10.97,1.74-4.7,5.41-8.23,9.64-10.97Zm.27,1.25c-1.65,2.74-3.93,4.94-6.6,6.85,1.46-2.71,3.8-4.88,6.6-6.85Zm-.26,2.01c-1.62,3.04-3.79,5.52-7.12,7.17,1.47-1.61,2.97-3.19,4.55-4.71.86-.82,1.74-1.62,2.57-2.46Zm-8.45,9.31c3.21-1.83,6.07-4.3,8.4-7.2-1.81,3.54-4.37,6.47-8.4,7.2Zm41.31-21.28c.46-2.39,1.25-4.79,1.78-6.99.22,2.53-.22,4.96-1.78,6.99Zm-.71-.58c.14-3.29.75-6.37,1.52-9.28.31,3.06-.44,6.44-1.52,9.28Zm-.83-.96c-.57-3.15.26-5.78,1.54-8.27-.68,2.74-1.07,5.54-1.43,8.35-.03-.04-.07-.06-.12-.08Zm-.58,1.7c-1.06-2.46-.86-4.49.05-6.25-.04,1.97-.2,4.06-.04,6.17,0,.03,0,.05,0,.08Zm11.08-14.48c-.49,2.13-1.32,4.25-2.48,6.34-.26-2.6.67-4.62,2.48-6.34Zm1.41-.02c0,2.73-1.62,7.66-3.38,9.52.28-2.48,2.01-7.35,3.38-9.52Zm-2.2,11.25c2.53-6.23,3.73-11.6,3.68-12.33.59,8.06-3.21,11.74-3.68,12.33Zm28.18-43.21c-.26-2.17-1.31-4.55-1.88-6.78,2.06,2.45,2.37,4.44,1.88,6.78Zm-1.12-1.37c-1.91-3.05-3.26-6.21-4.68-9.38,2.28,3.09,4.24,6.13,4.68,9.38Zm-2.01-1.42c-1.45-1.71-4.29-5.3-3.79-8.05,2.08,3.53,2.66,5.58,4.1,8.36-.11-.11-.21-.2-.31-.32Zm.22,2.3c-2.74-2.18-4.06-4.75-4.51-7.38,1.31,2.44,3.36,4.91,4.51,7.38Zm9.32-29.69c-1.07-2.99-1.67-5.64-2.49-7.82,2.15,2.23,2.81,4.95,2.49,7.82Zm-1.25-.69c-1.76-1.95-2.4-4.18-2.11-6.85.98,2.22,1.63,4.5,2.11,6.85Zm7.69-17.39c-1.3,2.29-2.31,4.9-2.83,7.27-.24-2.64.32-5.13,2.83-7.27Zm1.43,9.58c.81-2.64,1.04-5.68.87-8.45,1.42,2.85.94,5.74-.87,8.45Zm-2.42,2.89c.93-3.62,1.5-7.28,2.18-10.93.58,3.54-.04,7.6-2.18,10.93Zm-.95-.33c0-3.62.27-7.13,2.04-10.51-.39,3.45-.99,6.93-2.04,10.51Zm3.57,11.97c1.1-1.91,3.48-5.94,4.13-8.01-.13,2.27-1.74,6.33-4.13,8.01Zm-.19-1.63c.38-2.74,1.65-4.7,3.35-6.37-.87,2.27-2.01,4.35-3.35,6.37Zm-1.63.47c.02-.98.14-1.43.48-2.39.62-1.75,2.14-3.58,3.46-4.77-1.64,2.22-3,4.63-3.94,7.15Zm2.96,24.23c-.56,1.25-2.49,2.67-4.2,3.42.93-1.21,2.95-2.71,4.2-3.42Zm-2.74,7.33c1.5-1.95,3.16-3.99,4.82-6.02-.84,2.45-2.65,4.42-4.82,6.02Zm-2.1.81c1.55-2.89,3.98-5.81,6.16-7.33-1.58,2.43-3.46,5.06-6.16,7.33Zm-1.7.08c1.44-2.76,2.74-3.86,4.84-5.62-1.44,2.04-3.02,3.95-4.84,5.62Zm.83,20.51c-3.71.13-7.41.95-10.79,2.43,3-2.8,6.87-3.09,10.79-2.43Zm1.72,1.22c-1.17.17-2.34.39-3.51.59-2.16.37-3.85,1.01-6.5.83,3.33-1.38,6.61-1.98,10.01-1.42Zm1.77,1c-3.44,1.19-5.9,1.59-9.44,1.2,3.17-1,6.3-1.38,9.44-1.2Zm-13.72,2.13c4.85.44,9.78-.15,14.56-1.17-4.65,2.29-9.7,2.88-14.56,1.17Zm-1.43,8.52c2.25.35,4.44.89,6.62,1.56-2.03.48-7.22-.81-7.26-1.42-.02-.24.83,0,.64-.14Zm-1.81-1.26c3.44-.54,6.72.42,9.89,2-3.67-.71-7.21-1.15-9.89-2Zm-13.98,16.25c-2.2-.33-3.91-1.04-6.08-1.59,1.84-.71,4.39.08,6.08,1.59Zm.86,1.52c-2.62-.41-5.34-1.19-7.68-2.19,2.74-.07,5.28.68,7.68,2.19Zm-7.62-.98c.15,0,1.74.28,3.79.88.29.08.59.11.89.17.21.04,2.24.62,2.76.83-.61.03-3.06-.13-4.33-.58-1.05-.36-1.28-.38-1.88-.54-.28-.07-.97-.67-1.24-.76Zm-4.04,13.49c-.75-.23-1.51-.45-2.27-.65-.76-.2-1.53-.38-2.3-.55-.37-.08-.75-.12-1.12-.2-.26-.05-1.26-.33-1.93-.57.75-.05,1.41-.48,2.13-.37.78.12,3.38.47,4.1.78,1.25.55,2.24,1.45,3.56,2.28-.63-.39-1.48-.51-2.18-.73Zm-7.8.53c2.9.26,4.84.68,7.44,1.96-2.45.45-5.42-.59-7.44-1.96Zm-1.51-1.79c3.67.13,7.16,1.19,9.76,2.6-2.49-.22-7.47-1.58-9.76-2.6Zm-15.73,7.15c-2.83-.65-5.67-1.54-8.02-2.49,2.9.01,5.7.69,8.02,2.49Zm-.68.68c-3.62-.46-7.15-1.37-10.65-2.43,3.51-.03,7.39,1.05,10.65,2.43Zm-6.33.88c2.35.31,4.85.61,7.44.58-2.8,1.13-5.31.92-7.44-.58Zm-4.26-2.48c3.1.79,6.52,1.46,10.22,2.38-3.9.32-7.26-.74-10.22-2.38Zm-10.51,4.93c2.41.28,4.44,1.54,5.83,3.52-2.04-1.12-4.05-2.23-5.83-3.52Zm-1.13.84c2.71.51,8.02,4.42,9.6,6.44-2.15-1.22-7.61-5.01-9.6-6.44Zm-1.83.04c.47.56,1.25.94,1.85,1.37.64.45.91.45,1.57.88.66.42,1.43.9,2.11,1.29.33.19.96.72,1.29.9.23.13,2.06,1.63,2.62,2.07-.73-.18-3.68-1.73-4.34-2.05-.69-.33-1.53-.94-2.21-1.39-1.28-.85-1.89-1.89-2.89-3.08Z"/>
</svg>