<?xml version="1.0" encoding="UTF-8"?>
<svg id="Lag_1" data-name="Lag 1" xmlns="http://www.w3.org/2000/svg" viewBox="0 0 41.43 108.37" >
  <defs>
    <style>
      .cls-1 {
        fill: #16161a;
        
      }
    </style>
  </defs>
  <path class="cls-1" d="m37.56,107.74c-3.29-2.44-6.31-5.16-9.02-8.15-.37-.98-.66-1.99-.86-3.03-.3-1.55-.51-3.4-.16-5.04.06,0,.12-.04.17-.09,2.51-2.2,3.91-5.69,4.23-8.81.18-1.7-.45-.74-.71-.52-2.72,2.34-4.61,5.4-4.05,8.95,0,.06.02.12.04.16-.4,1.62-.24,3.46.04,5.02.16.89.38,1.77.66,2.63-.16-.19-.33-.37-.49-.56-1.85-3.34-3.04-6.63-4-10.11.06,0,.13-.04.2-.12,1.71-1.84,2.39-4.34,2.49-6.8.05-1.27-.04-2.55-.23-3.8-.09-.6-.4-1.46-.6-2.04-.56-1.64-1.89,1.59-2.21,2.18-.66,1.18-1.21,2.65-1.52,3.96-.53,2.19-.21,4.41,1.26,6.11.35,2.64,1.29,5.39,2.58,8.11-.94-1.22-1.84-2.48-2.68-3.78-4.13-6.35-7.04-13.41-8.78-20.78-.16-3.48.58-6.97,2.76-9.63,3.43-.61,4.79-3.97,5.9-6.93.01-.03.02-.06.01-.09,0-.02-.02-.05-.04-.06-.31-.36-2.05.53-2.26.64-.81.41-1.59.9-2.27,1.51-1.33,1.19-2.14,2.82-1.93,4.63,0,.09,0,.16.03.22-1.6,1.96-2.48,4.53-2.75,7.2,0-.04-.02-.08-.02-.12.13-2.19-.41-7.45.66-10.98.2.03,2.29-1.26,2.48-1.4.38-.28.75-.58,1.09-.9.66-.6,1.32-1.26,1.82-2.01.55-.81.77-1.74.99-2.68.21-.93.23-1.89.27-2.84,0-.25.01-.5-.07-.74-.03-.07-.06-.14-.13-.17-.05-.02-.1-.02-.16-.02-.21.03-.38.16-.55.28-.7.52-1.4,1.04-2.06,1.6-2.97,2.53-3.75,4.25-4.02,8.65-.4,1.42-.62,2.9-.82,4.34-.1.76-.18,1.51-.25,2.27-.35-2.73-.56-5.48-.6-8.23-.02-1.43,0-2.88.05-4.32.05-.69.09-1.37.11-2.05.35-5.06,1.32-10.12,3.39-14.85.7-1.59,1.5-3.14,2.38-4.65,1.27-1.44,2.91-2.79,5.16-3.26,2.38,1.1,4.68,1.09,6.49.35.93-.38,1.72-.92,2.4-1.53.18-.16,1.67-1.46,1.24-1.95-.02-.02-.05-.05-.08-.07-.04-.03-.09-.03-.13-.03-4.27-.37-9.15-.69-10.39,2.75,0,.01,0,.03,0,.04-1.22.25-2.31.71-3.23,1.32,2.14-3.32,4.61-6.47,7.1-9.57.71-.75,1.48-1.46,2.29-2.13,1.45-1.16,2.99-2.22,4.59-3.15.09.07.22.11.44.08,2.55-.37,5.48-1.1,7.3-3.17.14-.15.11-.38-.32-.49-2.94-.72-5.48.75-7.41,3.01-.04.05-.07.11-.09.18-.7.4-1.39.83-2.07,1.29-.45.26-.88.54-1.31.82,1.72-1.7,3.33-3.52,4.82-5.47.03,0,.05-.02.08-.03,2.62-1.37,5.75-3.07,6.47-6.38.15-.71.19-1.45.15-2.19-.02-.27-.2-.35-.49-.3-2.79-.02-4.68,2.02-5.7,4.55-.33.82-.61,1.69-.78,2.57-.05.24-.24,1.19-.1,1.61-2.05,2.69-4.34,5.15-6.84,7.36.74-1,1.4-2.07,1.96-3.2.11-.16.22-.31.34-.46.3-.41.6-.82.9-1.23.58-.81,1.13-1.66,1.54-2.58.64-1.44.58-3.08.37-4.72-.02-.15-.18-.22-.32-.21-.05,0-.1,0-.14.02-1.72.88-2.69,2.6-3.13,4.5-.16.72-.26,1.46-.31,2.22-.05.78-.11,1.6.03,2.4.02.12.06.25.12.35-.45.85-1.16,2.02-1.84,3.13-.14-.02-7.87,9.24-10.68,14.28.32-1.36.53-2.74.62-4.13,0-.02.01-.04.02-.05.06-.15.12-.31.19-.46.14-.32.28-.63.43-.95.58-1.22,1.2-2.46,1.41-3.8.14-.86.08-1.7-.14-2.55-.21-.82-.45-1.61-.99-2.31-.05-.07-.13-.15-.22-.14-.07,0-.11.06-.16.1-.46.5-.92.97-1.25,1.56-.39.7-.64,1.48-.77,2.26-.2,1.14-.19,2.33-.03,3.48.08.56.19,1.12.35,1.67.07.26.15.52.24.77.05.13.19.53.38.74,0,1.5-.66,4.76-.61,4.79-.83,1.58-1.57,3.2-2.18,4.87-.77,2.11-1.35,4.27-1.77,6.46-.22-1.56-.56-3.05-1.04-4.43.54-2.18-.17-4.31-1.63-6.02-.88-1.03-2.03-2.09-3.15-2.85-.55-.37-3.2-2.66-2.96-.94.08.61.19,1.51.38,2.09.4,1.2.9,2.38,1.52,3.49,1.2,2.15,2.93,4.07,5.29,4.94.1.04.18.04.23.02.43,2.13.75,4.24.91,6.41-.17,1.23-.29,2.46-.38,3.7-.09-.4-.2-.8-.32-1.2-.46-1.52-1.15-3.23-2.24-4.5,0-.05-.02-.1-.04-.16-1.1-3.41-4.17-5.29-7.66-6.15-.33-.08-1.32-.65-.39.78,1.7,2.64,4.52,5.12,7.75,5.95.07.02.14.02.19,0,1.06,1.31,1.7,3.06,2.13,4.57.21.72.36,1.45.47,2.18-.11,2.33-.11,4.66-.01,6.95.04,1.05.12,2.09.2,3.13-.39-.66-.85-1.26-1.38-1.78.08-.14-.24-1.32-.41-1.67-.18-.36-.39-.7-.62-1-.47-.61-1.03-1.09-1.64-1.47-.62-.38-1.3-.66-2-.86-.35-.1-.71-.18-1.07-.24-.18-.03-.36-.06-.54-.08-.41-.05-2.15-.33-2.28-.16-.11.14.45.59.54.67.03.03.06.05.09.08,1.24,1.08,2.35,2.36,3.63,3.36.64.5,1.32.94,2.06,1.22.36.14.74.24,1.13.29.15.02.29.03.45.04.9.81,1.62,1.78,2.14,2.89,0-.02.01-.04.02-.05.44,4.34,1.26,8.62,2.48,12.79-.23-.39-.47-.79-.72-1.17-.78-1.22-1.6-2.48-2.55-3.6,0-.1-3.04-3.37-4.67-4.6-2.07-1.56-5.42-2.61-5.57-2.58-.07.02-.13.04-.18.08-.17.15.51,2.15.71,2.57.21.45.46.86.74,1.23.57.76,1.26,1.37,2.03,1.86.78.5,1.64.88,2.53,1.17.45.14.9.26,1.37.36.23.05,2.66.36,2.84.24.9,1.08,1.69,2.28,2.43,3.45.55.86,1.07,1.75,1.55,2.65.04.14.08.28.13.42.96,2.95,2.12,5.85,3.49,8.64-.04-.04-.07-.08-.11-.12-.26-.28-.78-.8-1.11-1.03-1.59-3.27-4.41-6.75-8.4-6.36-.28-.02-.43.06-.38.29.98,4.08,4.71,5.21,8.3,6.49.29.25.61.47.87.72.53.5.98,1.08,1.53,1.57.04.04.08.06.12.07,1.57,3,3.38,5.87,5.42,8.58-.57-.52-1.14-1.04-1.73-1.53-1.12-.93-2.28-1.87-3.53-2.65-.02-.06-.04-.12-.06-.17-.22-.48-.61-.88-.94-1.23-.34-.36-.7-.67-1.09-.94-.77-.55-1.62-.92-2.5-1.15-.9-.24-1.83-.33-2.76-.33-.47,0-.94.03-1.41.08-.23.02-.47.05-.7.09-.52.08-1.05.13-1.57.3-.17.06-.45.09-.56.34-.09.2-.03.46.12.52.04.02.09.04.13.06,1.88.83,3.67,1.93,5.58,2.66.95.36,1.94.64,2.95.72.5.04,1,.03,1.51-.04.25-.03.51-.07.76-.15.1-.03.28-.07.41-.15.06-.04.11-.08.14-.13,0,0,0-.02,0-.03,1.16.74,2.24,1.62,3.28,2.48,1.46,1.21,2.82,2.52,4.12,3.9,3.13,3.68,6.74,6.99,10.82,9.79.39.27.95-.25.53-.56Zm-8.67-18.7c-.08.12-.67.59-.77.69.51-1.25,1.61-3.54,2.29-4.71.1,1.14-1.14,3.44-1.52,4.02Zm1.25-4.97c-.99,1.8-1.81,3.64-2.49,5.43,0-2.23,1.02-3.97,2.49-5.43Zm-6.24,2.58c.91-2.74,1.24-5.66,1.3-8.56.37,2.97.17,5.98-1.3,8.56Zm.04-2.6c-.15-1.94-.03-3.82.59-5.61.17,2.02.08,3.91-.59,5.61Zm-.36-2.62c-.08,1.3-.23,2.58-.4,3.86-.52-2.14-.22-4.07.54-5.97-.06.7-.09,1.41-.14,2.11Zm-.8-1.28c-.43,2.16-.46,4.4-.06,6.55-1.21-2.11-.85-4.38.06-6.55Zm-3.67-23.78c-.8,1.09-1.58,2.36-2.49,3.48.32-1.48,1.26-2.61,2.49-3.48Zm1.68-.65c-1.03,1.46-2.19,2.91-3.63,4.23.88-1.57,2.13-3.2,3.63-4.23Zm-2.96,4.22c1.14-1.23,2.26-2.48,3.24-3.83-.64,1.53-1.52,2.91-3.16,3.86-.02-.02-.05-.02-.08-.02Zm-.44.9c1.02-.73,1.9-1.6,2.78-2.37-.45,1.08-1.3,1.95-2.81,2.41.01-.01.02-.02.03-.03Zm.38-6.98c.51-1.32,1.15-2.51,1.93-3.54-.09,1.48-.66,2.67-1.93,3.54Zm-1.62.97c.17-1.51,1.79-4.12,3.03-5.16-.46,1.45-2.01,4.09-3.03,5.16Zm2.96-6.25c-.35.26-2.33,2.85-4.19,6.37.09-.44.31-3.57,4.19-6.37Zm8.45-24.63c-1.22.59-2.7,1.02-3.79,1.73.87-1.11,1.9-1.73,3.79-1.73Zm3.3.27c-1.98.56-3.93,1.16-6.04,1.45,1.64-1.04,3.77-1.31,6.04-1.45Zm-4.89,1.81c1.81-.41,2.96-.93,5.36-1.33-1.05,1.28-3.77,1.36-5.09,1.35-.09,0-.17-.01-.26-.02Zm4.2.02c-1.37.8-3.03,1.18-5.07.77,1.56-.42,3.46-.43,5.07-.77Zm9.35-16.63c-1.31.46-2.74,1.2-4.5,1.85,1.18-1.24,2.67-1.98,4.5-1.85Zm.2.5c-1.1,1.15-2.35,1.71-3.91,1.66,1.25-.68,2.53-1.26,3.91-1.66Zm-1.18-4.41c.88-1.14,1.68-2.59,2.22-4.05-.01,1.95-.93,3.16-2.22,4.05Zm.83-4.67c-1.32.98-2.61,2.24-3.5,3.62.54-1.86,1.67-3.18,3.5-3.62Zm.24.66c-1.4,1.7-2.85,3.35-4.13,5.16.7-2.24,2.3-4.07,4.13-5.16Zm.37.53c-.86,2.09-2.35,3.55-3.99,4.93,1.23-1.84,2.58-3.44,3.99-4.93Zm-8.72,2.95c-.69,1.08-1.61,3.71-2.06,4.93-.15-1.73,1.07-4,2.06-4.93Zm.37.45c-.11,1.41-.51,2.73-1.61,3.95.4-1.37.91-2.69,1.61-3.95Zm.54.35c-.04,1.05-.29,2.44-.84,3.39-.31.52-.46.75-.9,1.13.79-1.39,1.36-2.92,1.74-4.52Zm-13.81,15.62c-.31-1.06-.41-2.48-.05-3.21.15.84.25,2.33.05,3.21Zm-1.43-3.66c-.29,1.53-.59,3.06-.9,4.48-.1-1.59.1-3.17.9-4.48Zm.52.16c.14,1.57-.26,3.79-.98,5.59,0-2.09.47-3.95.98-5.59Zm.34,2.06c0,1.62,0,2.63-.7,4.34.07-1.46.33-2.91.7-4.34Zm-7.31,17.61c-.62-2.1-1.66-4.09-3.01-5.82,1.79,1.53,3.14,3.4,3.01,5.82Zm-1.05-1.05c-1.09-1.13-1.44-2.14-2.1-3.26-.36-.6-.7-1.22-1.07-1.82,1.55,1.33,2.53,3.05,3.17,5.08Zm-1.24-.77c-1.53-1.45-2.28-2.72-3.06-4.74,1.28,1.36,2.3,2.92,3.06,4.74Zm-3.81-4.75c1.36,2.56,2.97,5.02,5.02,7.05-2.63-1.55-4.29-4.07-5.02-7.05Zm1.88,11.29c-.29.22-2.86-1.65-3.41-2.75,1.14.73,2.22,1.52,3.23,2.41-.13-.04.3.26.18.34Zm-3.6-3.72c1.92.83,3.61,1.96,4.68,3.72-1.4-.89-2.95-2.33-4.68-3.72Zm5.68,18.41c-1.07-.78-2.05-1.28-3.04-2.15,1.33.19,2.66,1.05,3.04,2.15Zm-.13.69c-1.34-.68-2.74-1.62-3.92-2.65,1.6.52,2.91,1.38,3.92,2.65Zm-1.39.17c-.3-.21-.4-.31-.96-.65-.69-.41-1.69-1.45-1.91-1.74.29.16,1.33.86,1.43.94.14.11.27.24.42.34,1.06.7,1.79,1.32,1.84,1.39-.14-.09-.68-.17-.82-.27Zm-4.92,6.54c.88.28,1.67.39,2.39.75.42.2,1.57,1.25,1.92,1.56.33.29.38.75.65,1.11-.37-.21-.87-.56-.99-.65-.17-.14-.34-.29-.52-.43-.37-.29-.74-.57-1.12-.83-.38-.27-.77-.53-1.16-.78-.36-.23-.75-.58-1.16-.71Zm.17,1.82c1.57.69,2.5,1.41,3.72,2.63-1.39-.39-2.99-1.35-3.72-2.63Zm.21-.81c1.63.64,3.44,1.82,4.9,3.44-1.33-.65-3.85-2.39-4.9-3.44Zm11.84,15.98c-1.33-.7-2.81-1.65-4.19-2.69,1.7.37,3.08,1.38,4.19,2.69Zm.92,1.78c-1.81-1.18-3.58-2.44-5.17-3.9,1.87.95,3.84,2.3,5.17,3.9Zm-6.25-3.85c.97,1.19,2.07,2.21,3.1,3.15-1.49-.39-2.55-1.45-3.1-3.15Zm.87.41c1.83,1.33,3.44,2.62,4.98,3.73-1.88-.72-3.64-1.84-4.98-3.73Zm2.93,9.08c1.43-.12,2.77.31,3.82,1.3-1.27-.31-2.53-.81-3.82-1.3Zm-2.72.24c1.52-.05,5.32.86,6.58,1.9-1.41-.36-5.21-1.39-6.58-1.9Zm4.77,2.61c-.46-.14-1.06-.29-1.47-.47-.4-.18-2.22-.93-2.58-1.19.41.09,1.79.34,1.94.4.21.08.69.16.9.24.44.16.95.33,1.39.46.45.14.55.26,1,.38.42.11.89.32,1.32.32-.92,0-1.62.12-2.5-.14Z"/>
</svg>