<?xml version="1.0" encoding="UTF-8"?>
<svg id="Lag_1" data-name="Lag 1" xmlns="http://www.w3.org/2000/svg" viewBox="0 0 162.62 117.58">
  <defs>
    <style>
      .cls-1 {
        fill: #0F0F11;
      }
    </style>
  </defs>
  <path class="cls-1" d="m161.8,85.37c-6.13,3.19-12.5,5.75-19.03,7.65-1.76-.17-3.51-.47-5.23-.93-2.57-.69-5.54-1.74-7.77-3.49.03-.1.03-.21,0-.33-1.48-5.43-5.74-10.14-10.23-12.93-2.44-1.52-1.46.14-1.31.68,1.54,5.85,4.79,10.99,10.57,12.77.1.03.19.05.28.07,2.17,1.8,5.07,2.92,7.64,3.66,1.47.43,2.97.73,4.47.95-.4.11-.81.22-1.21.33-6.43.33-12.31-.29-18.29-1.42.03-.1.03-.22-.03-.39-1.53-3.95-4.82-6.83-8.47-8.8-1.89-1.02-3.89-1.82-5.93-2.47-.98-.31-2.51-.47-3.54-.59-2.91-.36,1.02,4.04,1.66,4.97,1.3,1.87,3.12,3.78,4.88,5.24,2.93,2.42,6.54,3.58,10.2,2.61,4.27,1.42,9.13,2.04,14.21,2.08-2.55.52-5.12.95-7.71,1.27-12.68,1.56-25.55.75-38-2.06-5.39-2.33-10.14-6.04-12.56-11.31,1.6-5.66-2.48-10.2-6.15-14.07-.04-.04-.08-.08-.13-.09-.04,0-.08,0-.12,0-.78.2-.71,3.5-.71,3.9.02,1.54.19,3.08.61,4.56.82,2.9,2.69,5.33,5.6,6.35.13.07.25.11.36.12,1.78,3.88,5.03,7.11,8.88,9.49-.07-.02-.13-.03-.2-.05-3.22-1.81-11.61-4.9-16.16-9.11.2-.29-.22-4.4-.29-4.79-.15-.79-.33-1.56-.55-2.32-.42-1.44-.94-2.93-1.71-4.26-.82-1.43-2.06-2.46-3.34-3.48-1.25-1-2.69-1.75-4.11-2.51-.37-.2-.75-.39-1.17-.43-.12-.01-.26,0-.36.07-.07.05-.11.14-.14.22-.11.33-.05.69.02,1.04.27,1.45.54,2.89.9,4.3,1.64,6.37,3.67,8.83,10.15,12.49,1.86,1.65,3.94,3.09,5.97,4.45,1.07.72,2.16,1.4,3.26,2.06-4.4-1.48-8.72-3.2-12.92-5.18-2.19-1.03-4.37-2.11-6.52-3.27-1-.59-2.01-1.15-3.03-1.69-7.41-4.28-14.38-9.49-20.01-16.12-1.9-2.24-3.65-4.6-5.29-7.04-1.25-3-2.08-6.47-1.12-10.23,3.42-2.79,5.12-6.28,5.33-9.58.11-1.69-.12-3.28-.54-4.77-.11-.39-.98-3.61-2.04-3.31-.05.01-.11.04-.16.07-.07.04-.11.11-.15.17-3.71,6.2-7.82,13.37-3.51,17.79.02.02.03.03.05.04-.52,2.04-.63,4.02-.38,5.87-3.45-5.71-6.41-11.78-9.27-17.84-.6-1.63-1.11-3.32-1.53-5.06-.69-3.07-1.15-6.17-1.38-9.29.17-.08.32-.26.44-.6,1.32-4.14,2.39-9.12.59-13.41-.13-.32-.5-.46-.98.13-3.27,3.93-2.91,8.87-.92,13.46.04.09.11.19.2.27.1,1.36.24,2.72.42,4.09.07.88.16,1.74.28,2.59-1.31-3.87-2.88-7.66-4.74-11.36,0-.05.01-.09,0-.14-.14-4.99-.4-10.99-4.89-14.53C3.99,1.15,2.89.54,1.74.06c-.42-.18-.68.05-.81.52-2.09,4.21-.39,8.6,2.68,12.01.99,1.1,2.11,2.18,3.32,3.08.33.24,1.62,1.25,2.37,1.34,2.56,5.1,4.6,10.39,6.1,15.82-.98-1.86-2.1-3.65-3.4-5.35-.15-.28-.31-.57-.46-.85-.4-.76-.8-1.52-1.21-2.27-.81-1.48-1.68-2.94-2.78-4.25-1.71-2.03-4.25-3.16-6.88-4.06-.24-.08-.47.11-.55.32-.04.07-.07.15-.07.23.06,3.27,1.95,6.01,4.51,8.07.97.78,2.03,1.47,3.13,2.1,1.15.65,2.34,1.35,3.66,1.72.2.06.42.1.63.08.95,1.31,2.2,3.25,3.38,5.1-.14.19,8.19,18.76,13.76,26.77-1.83-1.5-3.77-2.83-5.81-4-.02-.02-.05-.05-.07-.06-.19-.21-.37-.42-.55-.63-.38-.44-.75-.9-1.12-1.36-1.43-1.78-2.84-3.63-4.72-4.95-1.21-.84-2.52-1.38-3.97-1.67-1.39-.28-2.78-.5-4.24-.21-.15.03-.32.09-.37.23-.04.1,0,.21.04.31.43,1.06.8,2.11,1.45,3.05.78,1.12,1.77,2.06,2.86,2.85,1.59,1.15,3.39,2.01,5.26,2.62.91.3,1.84.54,2.79.71.45.08.9.15,1.35.2.23.03.94.1,1.4-.02,2.28,1.1,6.72,4.52,6.82,4.47,1.78,2.43,3.69,4.75,5.77,6.91,2.63,2.73,5.48,5.2,8.49,7.47-2.53-.82-5.03-1.4-7.48-1.7-2.91-2.44-6.66-2.92-10.34-1.98-2.21.57-4.67,1.53-6.65,2.67-.98.56-6.4,2.88-3.62,3.79.98.32,2.43.83,3.45.97,2.13.28,4.28.41,6.42.29,4.14-.23,8.35-1.43,11.41-4.36.13-.13.18-.24.2-.34,3.55.92,6.98,1.99,10.4,3.35,1.74,1.17,3.52,2.27,5.32,3.31-.68-.16-1.37-.3-2.06-.41-2.64-.42-5.75-.64-8.47.06-.08-.02-.17-.04-.28-.06-5.99-.85-11.11,2.41-15,7.06-.36.43-1.96,1.52.9,1.18,5.26-.62,11.11-3.07,14.76-7.36.08-.09.13-.19.14-.3,2.76-.63,5.9-.32,8.51.15,1.24.22,2.46.53,3.66.89,3.45,1.9,6.98,3.61,10.53,5.16,1.62.71,3.26,1.37,4.9,2.01-1.28.1-2.54.36-3.72.78-.16-.22-2.18-.62-2.84-.61-.69,0-1.35.07-1.98.2-1.27.26-2.42.75-3.44,1.4-1.04.66-1.96,1.48-2.78,2.4-.41.46-.79.94-1.15,1.45-.18.25-.35.51-.52.77-.37.58-2.09,3.01-1.93,3.34.14.27,1.23-.24,1.43-.33.06-.03.12-.05.18-.08,2.55-1.08,5.31-1.82,7.78-3.02,1.23-.6,2.39-1.31,3.37-2.22.48-.45.91-.95,1.27-1.51.14-.21.27-.42.38-.65,1.88-.76,3.91-1.14,5.96-1.11-.02-.02-.04-.04-.07-.06,6.9,2.54,14.01,4.46,21.23,5.71-.77.06-1.54.13-2.31.22-2.43.28-4.94.59-7.35,1.21-.15-.09-7.35,2.11-10.43,3.68-3.9,1.98-7.97,6.29-8.03,6.54-.03.11-.03.23,0,.33.1.37,3.63.82,4.43.83.83.01,1.64-.06,2.42-.21,1.57-.3,3.01-.9,4.33-1.69,1.34-.81,2.55-1.83,3.64-2.97.55-.57,1.07-1.18,1.56-1.81.24-.31,2.51-3.77,2.47-4.12,2.31-.57,4.71-.87,7.04-1.14,1.72-.19,3.44-.32,5.16-.4.25.04.49.08.74.12,5.19.73,10.43,1.11,15.69,1.11-.09.03-.17.05-.27.08-.62.19-1.79.59-2.39.92-6.13,0-13.5,1.7-15.86,8.03-.23.41-.23.7.15.79,6.91,1.53,11.39-3.28,15.98-7.78.59-.25,1.16-.57,1.73-.78,1.16-.43,2.37-.69,3.51-1.16.08-.03.14-.08.19-.13,5.7-.16,11.4-.78,17.02-1.87-1.21.47-2.41.96-3.6,1.5-2.23,1.01-4.52,2.08-6.63,3.4-.11-.02-.21-.02-.3-.03-.89-.02-1.79.28-2.55.52-.79.25-1.54.57-2.24.95-1.4.77-2.59,1.79-3.59,2.95-1.02,1.19-1.86,2.53-2.54,3.95-.34.71-.65,1.45-.92,2.2-.14.37-.26.75-.38,1.13-.27.85-.58,1.69-.71,2.61-.04.3-.19.75.1,1.09.24.29.68.38.88.21.06-.05.12-.11.19-.16,2.65-2.24,5.64-4.13,8.17-6.49,1.26-1.17,2.4-2.46,3.27-3.94.43-.72.78-1.5,1.05-2.31.13-.41.27-.83.33-1.26.03-.18.1-.47.07-.73-.01-.12-.04-.23-.1-.31,0-.01-.03-.02-.04-.04,1.98-1.2,4.11-2.2,6.19-3.13,2.91-1.32,5.91-2.42,8.96-3.35,7.91-2.03,15.59-5.05,22.85-9.16.7-.4.33-1.62-.45-1.22Zm-34.77-.69c.12.21.4,1.44.47,1.67-1.52-1.69-4.18-5.06-5.44-6.95,1.81.7,4.38,4.28,4.97,5.28Zm-6.62-5.57c2,2.83,4.18,5.43,6.4,7.8-3.37-1.66-5.27-4.49-6.4-7.8Zm-.71,11.38c-3.48-3.41-7.67-6.07-12.02-8.3,4.77,1.63,9.19,4.16,12.02,8.3Zm-3.9-1.99c-3.06-1.2-5.81-2.78-8.07-5.04,3.19,1.23,5.99,2.77,8.07,5.04Zm-4.24-1.39c1.91,1.08,3.74,2.26,5.56,3.46-3.63-.79-6.34-2.67-8.65-5.23,1.01.61,2.06,1.18,3.09,1.76Zm-2.53.27c2.96,2.24,6.34,3.95,9.9,4.94-4.09.27-7.28-1.95-9.9-4.94Zm-38.77-12.02c1.06,2.01,2.4,4.14,3.43,6.35-2.01-1.59-3.03-3.85-3.43-6.35Zm.25-3.03c1.45,2.64,2.79,5.48,3.73,8.64-1.74-2.49-3.28-5.6-3.73-8.64Zm4.21,7.61c-1.03-2.64-2.08-5.26-3.41-7.75,1.85,2.1,3.29,4.45,3.51,7.65-.04.02-.07.06-.09.1Zm1.04,1.33c-.36-2.09-1.02-4.07-1.54-5.97,1.31,1.48,2,3.41,1.57,6.05,0-.02-.02-.05-.03-.07Zm-10.3-5.73c-1.63-1.76-2.95-3.6-3.94-5.55,2.17,1.23,3.57,2.97,3.94,5.55Zm.28,3.18c-2.15-1.38-4.92-5.76-5.59-8.41,1.86,1.77,4.72,6.07,5.59,8.41Zm-7.29-9.1c.13.73,2.6,5.64,6.56,11.07-.6-.46-5.18-3.11-6.56-11.07Zm-31.1-31.03c0,2.29-.45,4.86-.18,7.03-1.05-2.15-1.23-4.16.18-7.03Zm2.85-4.81c-.62,3.42-1.15,6.81-2.27,10.23-.36-3.26.81-6.69,2.27-10.23Zm-.88,8.75c.72-3.05.79-5.18,1.94-9.11,1.16,2.54-.73,6.71-1.72,8.72-.07.14-.15.26-.22.38Zm3.14-6.35c.2,2.66-.45,5.47-2.58,8.26.52-2.67,1.9-5.57,2.58-8.26ZM14.15,9.72c-.27,2.32-.21,5.04-.52,8.19-1-2.71-1.03-5.51.52-8.19Zm.91.06c.93,2.52.86,4.84-.38,7.16-.11-2.4-.03-4.76.38-7.16Zm-7.55-1.48c-1.07-2.17-2.69-4.46-4.51-6.36,2.95,1.46,4.1,3.75,4.51,6.36ZM1.05,3.59c.51,2.73,1.47,5.62,2.89,7.99C1.53,9.39.36,6.71,1.05,3.59Zm1.18.13c1.54,3.38,2.98,6.8,4.77,10.08C4.12,11.08,2.53,7.3,2.23,3.72Zm1.08-.17c2.54,2.85,3.64,6.19,4.53,9.7-1.88-3.23-3.32-6.45-4.53-9.7Zm-1.98,15.41c1.14,1.85,4.43,5.18,5.95,6.76-2.73-1.05-5.27-4.59-5.95-6.76Zm.95-.22c2.06,1.2,3.76,2.8,4.79,5.36-1.78-1.63-3.4-3.37-4.79-5.36Zm.93-.56c1.57.83,3.48,2.24,4.51,3.78.57.85.79,1.26,1.05,2.2-1.52-2.22-3.43-4.23-5.56-5.98Zm13.47,32.5c-1.84-.31-4.06-1.22-4.9-2.3,1.38.39,3.71,1.35,4.9,2.3Zm-6.6-.53c2.11,1.57,4.21,3.15,6.14,4.67-2.49-1.03-4.73-2.5-6.14-4.67Zm.62-.67c2.48.95,5.55,3.19,7.76,5.62-3.17-1.55-5.63-3.64-7.76-5.62Zm3.37,1c2.46,1.2,3.99,1.95,6.06,4.28-2.17-1.18-4.17-2.64-6.06-4.28Zm21.3,24.11c-3.64-.61-7.42-.51-11.06.26,3.64-1.59,7.47-2.25,11.06-.26Zm-2.38.82c-2.52.81-4.32.6-6.5.77-1.18.09-2.37.16-3.55.28,3.16-1.36,6.49-1.58,10.05-1.05Zm-2.08,1.32c-3.33,1.24-5.82,1.45-9.45,1.13,3-.94,6.12-1.33,9.45-1.13Zm-10.03,2.27c4.88-.17,9.81-.8,14.41-2.4-4.29,2.84-9.34,3.49-14.41,2.4Zm18.51,5.49c.11.6-4.61,3.12-6.69,3.14,1.95-1.18,3.94-2.23,6.04-3.12-.16.17.61-.26.65-.02Zm-8.31,2.7c2.69-2.3,5.64-4.02,9.1-4.34-2.39,1.47-5.72,2.76-9.1,4.34Zm32.13,5.01c-1.97,1.05-3.46,2.16-5.51,3.02,1.27-1.88,3.55-3.26,5.51-3.02Zm.95.71c-2.02,1.53-4.48,2.96-6.92,3.99,1.97-2.05,4.24-3.39,6.92-3.99Zm-.78,2.23c-.54.3-.77.37-1.69.98-1.13.74-3.46,1.49-4.06,1.61.46-.33,2.29-1.38,2.48-1.48.27-.13.56-.23.82-.38,1.85-1.08,3.32-1.74,3.47-1.77-.24.15-.76.9-1.01,1.04Zm6.27,12.3c1.08-1.12,1.82-2.24,2.9-3.07.62-.48,3.06-1.45,3.79-1.75.67-.28,1.41-.03,2.16-.16-.59.4-1.49.91-1.73,1.02-.34.16-.7.3-1.04.46-.71.35-1.41.71-2.1,1.09-.69.38-1.37.77-2.04,1.18-.62.38-1.43.7-1.94,1.24Zm2.89,1.09c2.21-1.87,3.99-2.75,6.74-3.7-1.62,1.81-4.26,3.54-6.74,3.7Zm-1.07-.92c2.18-2,5.31-3.87,8.84-4.89-1.97,1.54-6.48,4.07-8.84,4.89Zm33-6.14c-2.05,1.5-4.59,3.05-7.17,4.37,1.81-2.31,4.36-3.65,7.17-4.37Zm3.39-.08c-3.13,1.88-6.34,3.62-9.74,4.95,2.82-2.13,6.33-4.12,9.74-4.95Zm-10.46,6.63c2.52-.6,4.88-1.5,7.08-2.37-1.7,1.97-4.09,2.79-7.08,2.37Zm1.27-1.02c3.37-1.8,6.52-3.27,9.34-4.79-2.48,2.31-5.47,4.16-9.34,4.79Zm15.93,2.27c.87-2.26,2.53-3.98,4.8-4.83-1.41,1.69-3.1,3.25-4.8,4.83Zm-1.65,4.29c1.05-2.34,5.25-7.43,7.75-8.58-1.59,1.88-5.96,6.87-7.75,8.58Zm7.48-5.3c-.55.6-1.22,1.39-1.81,1.89-.56.47-3.05,2.68-3.71,3.04.44-.56,1.84-2.46,2.04-2.64.27-.26.76-.93,1.03-1.19.57-.55,1.2-1.2,1.73-1.77.54-.57.8-.64,1.31-1.24.48-.55,1.14-1.11,1.46-1.77-.68,1.4-1.02,2.55-2.05,3.69Z"/>
</svg>