<?xml version="1.0" encoding="UTF-8"?>
<svg id="Lag_1" data-name="Lag 1" xmlns="http://www.w3.org/2000/svg" viewBox="0 0 216.3 224.25">
  <defs>
    <style>
      .cls-1 {
        fill: #1c1c21;
      }
    </style>
  </defs>
  <path class="cls-1" d="m213.88,101.23c-.32,6.9-1.31,13.7-2.94,20.3-1.03,1.44-2.17,2.8-3.44,4.06-1.89,1.87-4.29,3.92-6.92,4.97-.07-.08-.17-.13-.28-.16-5.44-1.44-11.65-.13-16.32,2.35-2.54,1.35-.61,1.33-.07,1.48,5.84,1.61,11.91,1.38,16.35-2.73.08-.07.14-.14.2-.21,2.65-.97,5.07-2.92,7-4.77,1.11-1.06,2.13-2.2,3.07-3.39-.11.4-.21.81-.33,1.21-2.94,5.73-6.43,10.5-10.41,15.1-.07-.08-.18-.14-.36-.17-4.18-.66-8.32.74-11.86,2.91-1.83,1.12-3.53,2.45-5.12,3.89-.76.69-1.66,1.94-2.29,2.76-1.77,2.33,4.01,1.15,5.13,1.06,2.27-.19,4.84-.8,6.99-1.59,3.56-1.31,6.38-3.85,7.38-7.51,3.37-2.98,6.34-6.87,8.94-11.25-.83,2.47-1.75,4.91-2.78,7.3-5.02,11.75-12.18,22.47-20.86,31.82-4.72,3.49-10.32,5.74-16.09,5.18-4.09-4.23-10.07-2.98-15.25-1.75-.05.01-.11.03-.14.07-.03.03-.05.07-.06.11-.22.77,2.67,2.37,3.02,2.57,1.34.75,2.76,1.39,4.25,1.77,2.92.75,5.96.35,8.31-1.65.13-.08.22-.16.28-.25,4.25.41,8.67-.78,12.67-2.92-.05.05-.1.1-.15.15-3.18,1.88-10.06,7.58-16,9.39-.15-.32-3.92-2.02-4.29-2.15-.76-.27-1.52-.5-2.29-.69-1.46-.36-3-.66-4.54-.66-1.65,0-3.16.55-4.69,1.14-1.49.58-2.87,1.45-4.23,2.29-.36.22-.72.45-.96.79-.07.1-.14.22-.12.34.01.09.06.17.12.23.23.26.58.39.91.51,1.39.49,2.77.99,4.18,1.38,6.34,1.78,9.47,1.26,15.9-2.5,2.36-.77,4.65-1.85,6.85-2.92,1.16-.56,2.29-1.17,3.42-1.79-3.49,3.06-7.15,5.93-10.97,8.58-1.98,1.38-4.02,2.71-6.1,4-1.01.57-2,1.16-2.98,1.77-7.42,4.26-15.43,7.66-23.99,9.2-2.89.52-5.81.85-8.75,1.04-3.22-.43-6.64-1.45-9.41-4.17-.7-4.36-2.86-7.58-5.61-9.42-1.4-.94-2.9-1.54-4.4-1.93-.39-.1-3.61-.96-3.89.1-.01.05-.02.11-.02.17,0,.08.04.15.07.21,3.49,6.32,7.64,13.48,13.62,11.97.02,0,.04-.02.06-.02,1.5,1.48,3.16,2.57,4.89,3.28-6.67.11-13.4-.37-20.08-.94-1.72-.3-3.43-.7-5.14-1.21-3-.94-5.91-2.1-8.73-3.47.01-.18-.06-.41-.3-.69-2.91-3.22-6.69-6.64-11.3-7.24-.34-.04-.65.2-.38.91,1.76,4.8,6.21,6.97,11.18,7.56.1.01.22,0,.33-.03,1.23.6,2.47,1.16,3.74,1.69.79.38,1.58.73,2.38,1.06-4-.81-8.07-1.36-12.2-1.61-.04-.03-.07-.05-.12-.08-4.38-2.38-9.7-5.18-15.02-3.07-1.14.45-2.22,1.09-3.22,1.85-.36.28-.3.61.04.96,2.59,3.92,7.23,4.66,11.73,3.71,1.45-.31,2.94-.73,4.33-1.32.38-.16,1.89-.78,2.35-1.38,5.7.35,11.3,1.24,16.74,2.67-2.1-.09-4.21-.01-6.33.26-.32,0-.64-.02-.96-.03-.86-.03-1.71-.08-2.57-.1-1.68-.04-3.38-.02-5.07.27-2.62.45-4.87,2.08-6.97,3.91-.19.17-.14.46,0,.64.04.07.09.14.17.18,2.86,1.58,6.17,1.33,9.24.15,1.16-.45,2.29-1.01,3.39-1.65,1.14-.66,2.34-1.35,3.33-2.3.15-.14.29-.31.38-.5,1.61-.17,3.91-.27,6.11-.36.09.21,20.34,2.34,30.06,1.54-2.21.83-4.34,1.84-6.38,3.01-.03,0-.07.02-.09.03-.27.06-.55.11-.82.16-.58.11-1.16.2-1.74.28-2.26.34-4.57.63-6.65,1.6-1.34.62-2.46,1.49-3.43,2.6-.94,1.07-1.83,2.15-2.31,3.56-.05.14-.09.32.01.44.07.09.19.11.29.12,1.13.17,2.23.37,3.36.28,1.35-.11,2.67-.5,3.9-1.04,1.79-.79,3.44-1.92,4.91-3.23.71-.64,1.39-1.32,2.02-2.05.3-.35.58-.7.85-1.07.14-.19.56-.76.69-1.22,2.1-1.43,7.28-3.55,7.29-3.65,2.99-.32,5.96-.8,8.88-1.52,3.68-.9,7.25-2.13,10.72-3.59-1.98,1.77-3.74,3.65-5.22,5.62-3.57,1.29-5.88,4.29-6.9,7.95-.62,2.2-1.02,4.81-1.03,7.09,0,1.13-.73,6.98,1.46,5.03.77-.69,1.94-1.68,2.57-2.5,1.31-1.7,2.5-3.5,3.47-5.41,1.88-3.7,2.95-7.94,1.96-12.06-.04-.18-.11-.28-.2-.34,2.58-2.61,5.23-5.04,8.12-7.31,1.88-.92,3.73-1.9,5.54-2.94-.48.51-.94,1.03-1.39,1.58-1.69,2.08-3.44,4.65-4.2,7.36-.06.06-.12.13-.19.21-3.75,4.75-3.49,10.82-1.43,16.51.19.53.33,2.46,1.47-.19,2.1-4.86,2.92-11.15,1.05-16.46-.04-.11-.1-.21-.19-.27.84-2.71,2.69-5.26,4.4-7.29.81-.96,1.69-1.86,2.61-2.72,3.37-2.03,6.63-4.23,9.75-6.51,1.43-1.04,2.82-2.13,4.2-3.23-.56,1.16-.96,2.37-1.19,3.61-.27.03-1.63,1.57-1.95,2.15-.34.6-.61,1.2-.82,1.81-.42,1.23-.56,2.47-.52,3.68.05,1.23.29,2.44.68,3.61.19.58.42,1.16.68,1.72.13.28.26.56.4.83.32.62,1.55,3.32,1.92,3.34.3.02.41-1.18.43-1.4,0-.06.02-.13.02-.19.34-2.75,1.09-5.51,1.3-8.25.1-1.36.07-2.72-.23-4.03-.15-.64-.36-1.26-.66-1.86-.11-.22-.23-.44-.37-.66.29-2.01.97-3.95,2.03-5.71-.03,0-.06.02-.09.03,5.66-4.69,10.89-9.87,15.6-15.49-.33.7-.66,1.4-.97,2.11-.98,2.24-1.97,4.57-2.65,6.96-.15.08-1.86,7.42-2.06,10.87-.25,4.37,1.43,10.05,1.62,10.23.08.08.18.14.28.17.37.1,2.53-2.73,2.94-3.41.43-.71.77-1.45,1.03-2.2.53-1.51.74-3.06.71-4.59-.03-1.57-.3-3.12-.74-4.64-.22-.76-.48-1.51-.78-2.26-.15-.37-2-4.07-2.32-4.2.67-2.28,1.61-4.51,2.55-6.66.69-1.58,1.45-3.14,2.25-4.66.15-.19.32-.38.47-.58,3.24-4.12,6.2-8.47,8.84-13.01-.02.09-.04.17-.06.27-.15.63-.39,1.84-.41,2.53-3.08,5.3-5.31,12.53-1.02,17.75.24.41.49.55.76.26,4.79-5.21,2.88-11.5,1.3-17.72.08-.63.09-1.29.19-1.89.21-1.22.6-2.4.76-3.62.01-.09,0-.17-.02-.23,2.73-5.01,5.05-10.25,6.93-15.65-.2,1.28-.38,2.57-.51,3.86-.25,2.43-.47,4.95-.39,7.44-.07.09-.13.17-.17.25-.46.76-.66,1.69-.84,2.47-.19.81-.28,1.62-.3,2.41-.04,1.6.24,3.14.75,4.59.51,1.48,1.25,2.87,2.14,4.18.44.66.93,1.29,1.44,1.91.25.3.52.6.79.9.6.66,1.17,1.35,1.9,1.92.24.19.55.54.99.46.37-.06.67-.39.62-.66-.01-.08-.03-.16-.04-.24-.61-3.41-.74-6.95-1.51-10.32-.38-1.68-.92-3.31-1.77-4.81-.41-.73-.9-1.43-1.47-2.07-.28-.32-.58-.65-.93-.92-.14-.11-.36-.32-.59-.43-.11-.05-.21-.08-.32-.07-.02,0-.03.01-.05.01-.05-2.32.17-4.66.4-6.93.33-3.18.88-6.33,1.6-9.44,2.22-7.85,3.47-16.02,3.55-24.36,0-.81-1.24-1.1-1.28-.22Zm-18.06,29.72c.24,0,1.45.38,1.68.43-2.23.46-6.47,1.08-8.75,1.21,1.51-1.21,5.9-1.64,7.07-1.64Zm-8.14,2.93c3.45-.3,6.8-.89,9.95-1.61-3.13,2.08-6.53,2.31-9.95,1.61Zm9.48,6.32c-4.7,1.3-9.1,3.59-13.21,6.22,3.81-3.31,8.21-5.85,13.21-6.22Zm-3.68,2.38c-2.57,2.04-5.32,3.62-8.41,4.45,2.67-2.14,5.4-3.79,8.41-4.45Zm-3.33,2.97c1.89-1.1,3.83-2.1,5.79-3.07-2.51,2.74-5.49,4.14-8.86,4.86,1.04-.57,2.06-1.19,3.08-1.79Zm-1.04,2.33c3.43-1.43,6.6-3.5,9.24-6.08-1.82,3.67-5.34,5.31-9.24,6.08Zm-29.86,27.49c2.27.09,4.79,0,7.21.22-2.38.94-4.85.68-7.21-.22Zm-2.49-1.74c3.01.07,6.14.34,9.34,1.11-3.03.25-6.49.03-9.34-1.11Zm8.69.18c-2.79-.44-5.6-.84-8.42-.94,2.75-.54,5.51-.61,8.38.81,0,.05.02.09.04.13Zm1.67-.23c-1.99-.74-4.03-1.16-5.94-1.67,1.94-.39,3.95-.02,6.02,1.68-.03,0-.05,0-.08-.01Zm-10.13,6.03c-2.34.53-4.6.75-6.78.62,2.16-1.26,4.36-1.59,6.78-.62Zm2.89,1.36c-2.27,1.17-7.46,1.36-10.08.61,2.46-.72,7.62-1.03,10.08-.61Zm-11.53,1.73c.69.26,6.18.59,12.87-.11-.7.29-5.29,2.91-12.87.11Zm-42.45,11.31c1.98,1.16,3.97,2.83,5.99,3.68-2.38-.17-4.21-1.03-5.99-3.68Zm-2.73-4.88c2.65,2.25,5.31,4.42,7.71,7.1-3-1.33-5.38-4.05-7.71-7.1Zm7.13,5.16c-2.27-2.15-4.09-3.28-6.9-6.25,2.78.28,5.44,4,6.68,5.87.08.13.15.25.22.38Zm-3.91-5.91c2.4,1.16,4.5,3.14,5.84,6.38-2.05-1.79-3.86-4.45-5.84-6.38Zm-32.09,2.53c1.87,1.4,4.25,2.71,6.82,4.56-2.85-.5-5.28-1.88-6.82-4.56Zm.51-.75c2.65.46,4.61,1.69,6,3.92-2.13-1.11-4.14-2.36-6-3.92Zm-5.07,5.79c-2.42-.16-5.21.08-7.77.7,2.75-1.82,5.3-1.66,7.77-.7Zm-7.32,3.22c2.62.93,5.6,1.55,8.36,1.51-3.11.98-6.02.65-8.36-1.51Zm.71-.96c3.69.37,7.38.84,11.11.94-3.8,1.13-7.86.6-11.11-.94Zm.39-1.02c3.74-.76,7.18-.04,10.66.96-3.74,0-7.25-.37-10.66-.96Zm12.33,9.45c2.17-.06,6.71-1.22,8.84-1.75-2.28,1.84-6.62,2.26-8.84,1.75Zm.28-.93c2.07-1.17,4.31-1.85,7.05-1.45-2.3.72-4.63,1.24-7.05,1.45Zm-.02-1.09c1.51-.94,3.69-1.89,5.54-2,1.02-.06,1.48-.05,2.43.2-2.68.2-5.38.84-7.97,1.8Zm34.87,4.67c-1.2,1.43-3.09,2.9-4.45,3.09,1.03-1,3.03-2.53,4.45-3.09Zm-3.78,5.44c2.42-1.03,4.84-2.05,7.12-2.96-2.14,1.64-4.53,2.83-7.12,2.96Zm-.27-.87c2.06-1.67,5.55-3.2,8.75-3.89-2.93,1.97-5.98,3.04-8.75,3.89Zm2.56-2.41c2.27-1.52,3.69-2.47,6.74-3.09-2.11,1.28-4.38,2.28-6.74,3.09Zm31.54-6.31c-2.36,2.84-4.17,6.17-5.32,9.69.45-3.95,1.81-7.59,5.32-9.69Zm-.49,2.47c-.56,2.59-1.65,4.03-2.6,6.01-.51,1.07-1.06,2.13-1.54,3.21.41-3.41,1.89-6.41,4.14-9.22Zm.09,2.46c-.6,3.51-1.67,5.76-3.77,8.74.7-3.07,1.93-5.96,3.77-8.74Zm-3.08,9.81c2.3-4.31,4.24-8.88,5.16-13.67.3,5.14-1.67,9.83-5.16,13.67Zm14.05-13.25c.58.21.38,5.55-.64,7.37-.04-2.28.05-4.53.34-6.79.07.23.08-.66.31-.57Zm-1.84,8.54c-.64-3.48-.65-6.89.82-10.05.07,2.8-.49,6.33-.82,10.05Zm20.47-25.26c-.08,2.23.13,4.07-.16,6.28-.98-2.04-1.03-4.71.16-6.28Zm1.09-.46c.31,2.52.31,5.36-.03,7.99-.78-2.73-.8-5.37.03-7.99Zm1.54,1.79c-.01.62-.06.85,0,1.96.07,1.35-.44,3.74-.65,4.32-.05-.56-.05-2.67-.03-2.89.02-.3.09-.6.08-.9,0-2.14.16-3.74.21-3.89.01.28.4,1.11.39,1.4Zm13.79.76c-.43-1.49-1.02-2.7-1.2-4.05-.1-.77.28-3.38.39-4.15.09-.73.68-1.24.94-1.95.05.71.04,1.74.02,2.01-.03.38-.09.75-.12,1.13-.06.79-.09,1.57-.11,2.36-.02.79-.02,1.57,0,2.36.01.73-.11,1.59.1,2.3Zm2.39-1.96c-.51-2.85-.37-4.83.18-7.69.75,2.31.93,5.46-.18,7.69Zm-1.33.46c-.63-2.89-.68-6.54.21-10.1.34,2.48.27,7.64-.21,10.1Zm11.27-31.62c.27,2.53.33,5.5.17,8.4-1.09-2.73-.96-5.6-.17-8.4Zm1.63-2.97c.05,3.65-.05,7.3-.61,10.91-.42-3.51-.39-7.54.61-10.91Zm.48,12.38c.75-2.48,1.15-4.97,1.5-7.31.85,2.46.36,4.94-1.5,7.31Zm-.24-1.61c.14-3.81.44-7.28.55-10.48.75,3.3.85,6.82-.55,10.48Zm9.97-12.63c-1.51-1.89-2.17-4.18-1.77-6.58.75,2.07,1.25,4.31,1.77,6.58Zm2.88,3.58c-1.5-2.08-3.79-8.27-3.53-11.01.82,2.32,2.95,8.6,3.53,11.01Zm-.82-9.13c.25.78.59,1.75.72,2.51.12.72.79,3.98.76,4.74-.27-.66-1.2-2.83-1.26-3.09-.09-.37-.42-1.12-.51-1.49-.19-.77-.43-1.63-.66-2.39-.22-.75-.15-1.02-.41-1.76-.24-.69-.39-1.54-.8-2.15.87,1.29,1.69,2.16,2.16,3.63Z"/>
  <g>
    <path class="cls-1" d="m127.68,74.52c2.33-1.56,2.9-4.47,1.42-6.68-1.25-1.86-3.58-2.32-5.44-1.07-2.21,1.48-2.74,4.71-1.26,6.91,1.25,1.86,3.31,2.17,5.28.84Z"/>
    <path class="cls-1" d="m186.71,63.75c2.36,11.56,1.53,18.36-2.66,21.17-1.98,1.33-3.84.55-5.71-2.24-.7-1.05-1.13-1.94-1.76-3.37,3.25-2.69,4.69-4.32,5.73-7.04,1.93-4.66,1.06-10.99-2.06-15.64-2.73-4.07-6.81-5.38-9.95-3.27-4.87,3.27-5.58,14.37-2.41,23.43l.11.54c2.52,11.8,2.72,16.38.52,17.86-.81.55-1.86.24-2.57-.81-.94-1.4-1.33-2.48-3.37-11.06-2.04-8.07-3.29-11.45-4.93-13.89-1.87-2.79-5.21-3.75-7.66-2.11-2.21,1.48-3.17,3.81-3.82,8.63l-1.33-4.5c-1.2.97-1.59,1.4-2.29,1.87-.46.31-1.36.74-2.36,1.25l-1.24.66,5.05,15.37-.11.03c1.34,6.01,1.85,8.54,2.17,11.53.63,4.97.18,7.8-1.22,8.74-.7.47-1.94.12-2.49-.69-.39-.58-.86-1.78-1.41-3.1l-1.06-2.83-8.18-24.52c-1.12,1.09-1.7,1.48-2.75,2.18-.93.62-1.51,1.01-2.95,1.64l5.28,15.54-.07.02c.43,2.41.16,3.26-1.35,4.27-.35.23-.78.35-1.44.63-1.45-5.43-3.45-10.16-5.32-12.95-1.25-1.86-2.73-2.55-3.77-1.85-.93.62-1.39,2.45-1.11,4.62.44,2.91,1.49,6.25,2.82,8.22,1.64,2.44,3.54,3.52,6.5,3.9.67,4.27.95,6.44,1.07,8.89.17,4.27-.68,7.53-2.31,8.63-1.05.7-2.56.2-3.42-1.08-.55-.81-.94-1.9-1.6-3.65l-18.4-55.09c-1.36,1.25-1.94,1.64-2.87,2.26s-1.51,1.01-2.83,1.56l14.93,44.52-.21.05c3.03,13.31,3.24,18.4.91,19.96-.93.62-2.1.39-2.64-.42-.31-.47-.66-1.24-.98-2.21-.24-.85-.67-2.25-1.37-4.31-.86-2.29-1.88-5.31-2.98-8.96-.51-1.51-1.17-3.26-1.64-4.97-1.53-4.54-2-5.74-2.58-7.37l-.9-2.6c-.89.93-1.36,1.25-2.4,1.95-1.16.78-1.74,1.17-3.29,1.87l1.37,4.31c-2.96-2.4-4.78-2.86-6.64-1.61-6.05,4.05-5.38,19.12,1.17,28.89,3.67,5.46,8.29,7.59,11.78,5.25,2.44-1.64,2.86-3.77,2.26-9.95,3.31,3.68,6.26,4.56,9.17,2.61s3.51-5.01,2.11-13.8c.25.47.52.89.84,1.37,2.89,4.3,7.04,5.73,10.53,3.39,3.95-2.65,4.44-8.21,2.2-19.85.97-.31,1.51-.51,2.09-.9.79-.53,1.32-1.11,1.65-1.81v.02c1.85,5,2.08,5.86,3.02,7.25,2.42,3.6,6.61,4.84,9.64,2.81,2.49-1.67,3.28-4.78,2.48-11.1l2.4,7.32c1.01-1.01,1.39-1.44,2.32-2.06.58-.39,1.71-.98,2.64-1.6l.78-.35c-1.1-3.14-1.57-4.34-3.8-11.44l-2.43-7.64c-2.08-6.87-2.14-14.24-.04-15.65.7-.47,1.63-.08,2.18.73.47.7.9,1.59,1.41,3.1.63,1.43.98,2.72,2.79,10.44,1.3,5.2,2.43,8.15,3.83,10.24,2.26,3.37,5.99,4.41,8.9,2.46,2.56-1.72,3.44-4.67,3-9.09-.19-1.76-.44-3.37-.9-5.61.02.03.04.07.07.1,3.51,5.23,9.26,6.77,13.68,3.81,3.84-2.57,5.65-7.67,5.12-14.23-.24-3.38-.68-5.78-1.74-10.63l-1.59.39.39,1.59Zm-15.07-.85c-.99-5.24-.91-7.65.36-8.5,1.16-.78,2.83-.05,3.93,1.58,2.03,3.02,4.1,9.38,4.19,13.03.21,4.08-.84,6.29-4.21,8.55-1.76-4.38-3.09-9.39-4.27-14.67Zm-70.29,64.34c1.88,6.83,1.86,11.06,0,12.31-.97.82-2.56.2-3.73-1.54-1.4-2.09-2.61-4.65-4.03-9.27-1.25-3.88-2.63-8.69-3.53-12.8-1.14-4.46-1.1-6.17-.06-6.87,1.28-.86,3.85.45,5.48,2.9,1.95,2.91,4.37,9.03,5.87,15.28Z"/>
    <path class="cls-1" d="m157.74,14.83c-4.35-2.5-10.1-2.47-14.96-2.03-.27.03-.46.09-.6.16-.75-.09-1.52-.1-2.18-.15-1.52-.13-3.05-.19-4.57-.2-1.45,0-2.9.06-4.35.18,1.19-.27,2.37-.62,3.52-1.08.02,0,.03,0,.05,0,5.55-.17,12.4-1.39,15.46-5.92.24-.36-.13-.5-.19-.53-6.17-3.18-11.97,1.6-15.51,5.56-.01.02-.02.03-.03.05-.13.15-.22.27-.3.38-2.14.81-7.23,1.67-7.23,1.67-10.2-1.11-20.46-1.55-30.34.56-.55.12-1.1.25-1.65.38,1.3-.85,2.55-1.77,3.75-2.76.03-.01.06-.03.08-.04.26-.1.52-.2.78-.3.55-.2,1.11-.38,1.67-.57,2.17-.71,4.4-1.37,6.3-2.67,1.22-.83,2.18-1.87,2.96-3.13.75-1.21,1.45-2.42,1.69-3.89.02-.15.03-.33-.08-.43-.08-.07-.2-.08-.31-.07-1.15.02-2.26,0-3.36.28-1.32.33-2.55.93-3.68,1.67-1.64,1.08-3.08,2.46-4.31,4-.6.75-1.15,1.53-1.65,2.36-.24.39-.46.79-.67,1.2-.1.21-.43.84-.48,1.32-1.43,1.37-2.8,2.43-4.71,3.56-10.4,2.84-20.02,8.07-28.74,13.99,1.17-1.51,2.21-3.05,3.09-4.63,3.36-1.76,5.24-5.05,5.77-8.81.32-2.26.21-4.58-.09-6.84-.25-1.91-.88-3.67-1.5-5.47-.03-.09-.07-.18-.16-.21-.52-.16-2.28,3.11-2.67,3.66-1.27,1.82-2.14,4.18-2.81,6.28-1.18,3.72-1.51,7.78-.07,11.48.07.17.15.26.24.31-1.87,2.49-3.81,4.86-5.92,7.14-2.18,1.61-4.3,3.29-6.36,5.04.45-.63.89-1.27,1.29-1.93,1.39-2.29,2.79-5.07,3.17-7.86.05-.07.11-.14.16-.24,3.07-5.22,2-11.2-.81-16.56-.26-.5-.78-1.79-1.05-.41-.9,5.22-1.78,12.23.79,17.24.06.11.13.19.22.24-.47,2.8-1.96,5.57-3.38,7.82-.91,1.43-1.94,2.77-3.06,4.03-3.33,3-6.49,6.18-9.47,9.52.02-.05.03-.1.05-.16.2-.62.53-1.81.6-2.49,3.47-5.05,6.24-12.09,2.37-17.62-.2-.43-.45-.59-.74-.32-5.17,4.83-3.75,11.24-2.64,17.58-.13.62-.19,1.28-.34,1.87-.25,1-.62,1.97-.88,2.96-.24.28-.49.55-.73.84-5.4,6.44-10.1,13.5-13.91,21.03.14-.78.26-1.56.37-2.35.34-2.42.66-4.93.67-7.42.07-.08.13-.17.18-.24.49-.74.72-1.66.93-2.44.22-.8.34-1.6.39-2.4.1-1.6-.12-3.14-.57-4.61-.46-1.5-1.14-2.92-1.98-4.26-.42-.67-.88-1.32-1.37-1.96-.24-.31-.49-.62-.75-.93-.58-.68-1.12-1.39-1.83-1.99-.23-.2-.53-.56-.97-.5-.37.05-.13,7.85.51,11.25.32,1.69.8,3.35,1.58,4.88.38.75.85,1.46,1.39,2.13.27.33.56.67.89.96.14.12.35.33.58.45.1.05.21.09.32.09.02,0,.03-.01.05-.01-.04,2.32-.34,4.65-.66,6.91-.22,1.56-.5,3.11-.82,4.65-.58,1.22-1.14,2.46-1.68,3.7-.02-.63-.06-1.26-.16-1.88.24-.12.99-2.03,1.11-2.68.12-.68.17-1.34.15-1.98-.03-1.3-.31-2.51-.76-3.63-.46-1.14-1.11-2.19-1.86-3.16-.38-.48-.79-.95-1.22-1.39-.21-.22-.44-.44-.66-.65-.51-.47-.99-.97-1.59-1.36-.2-.13-.46-.38-.81-.27-.29.09-.52.39-.47.6.01.06.03.13.04.19.61,2.7.85,5.55,1.59,8.2.37,1.32.86,2.59,1.59,3.71.36.55.77,1.06,1.25,1.52.18.17.37.34.57.49.33,1.57.39,3.17.22,4.77-3.1,7.78-5.22,15.96-6.19,24.4-.28.92-.53,3.35-.68,7.6-16.04,13.79-19.35,36.75-7.58,54.3,6.55,9.77,17.36,16.84,28.55,18.95,10.41,1.95,20.35-.33,29.88-6.72,11.05-7.41,16.84-17.36,17.28-29.29.2-10.25-3.05-19.87-11.08-31.85-.23-.35-1.21-1.55-2.07-2.83,2.39-6.49,3.43-10.22,4-15.15.72-6.72-.62-13.74-3.58-18.16-2.81-4.19-6.89-5.49-10.26-3.23-2.91,1.95-4.41,6.5-4.43,13.25-.02,7.26,1.78,13.47,7.33,25.26l1.8,3.68c-.15.27-.39.43-.43.62l-.74.66-.58.89s-.23.16-.5.51c-.98-2.21-1.64-3.45-2.58-4.85-5.15-7.67-14.48-13.04-22.99-13.41-6.6-.29-13.31,1.51-18.43,4.94l-1.74,1.17c-.03-.83-.07-1.59-.12-2.29.51-3.27,1.96-9.62,7.85-17.52,5.88-.02,9.12-5.2,11.83-9.79.03-.05.06-.1.05-.15,0-.04-.02-.08-.04-.12-.41-.69-3.56.28-3.94.4-1.47.44-2.91,1.03-4.22,1.84-2.56,1.59-4.38,4.06-4.56,7.13-.03.15-.04.27-.02.37-2.35,2.02-4.15,4.68-5.44,7.66,1.58-7.72,4.02-15.21,7.32-22.32,2.85-6.13,6.28-11.96,10.21-17.44,2.39-2.31,5.75-3.66,9.69-3.6,3.51,2.68,7.3,3.52,10.55,2.97,1.67-.28,3.16-.88,4.52-1.63.35-.19,3.28-1.79,2.75-2.75-.03-.05-.06-.09-.11-.14-.06-.06-.13-.08-.2-.1-6.89-2.18-14.82-4.51-18.12.71-.01.02-.02.04-.03.06-2.5-.04-4.79.46-6.76,1.4,6.51-8.44,14.22-15.96,22.77-22.38-.03.04-.06.08-.09.12.04,0,.07,0,.11,0,.14.1.33.19.61.27,5.11,1.23,11.22,2.16,16.24.18.38-.15.51-.52-.24-1-3.74-2.4-7.97-2.72-12.1-1.84-.05-.03-1.52.52-2.78.99,1.7-1.23,3.43-2.43,5.19-3.58,1.5-.97,3.03-1.92,4.59-2.85,1.68-.5,3.37-.96,5.07-1.37,2.92-.34,5.89-.31,8.82.14,2.63.41,5.7,1.12,8.1,2.62-.02.1,0,.21.04.33,2.07,5.24,7.07,8.97,11.59,11.74,1.21.71,1.12-.16.95-.7-2.02-6.35-5.67-10.53-11.62-11.66-.1-.02-.2-.03-.28-.04-2.35-1.55-5.36-2.34-8-2.8-1.9-.33-3.81-.49-5.73-.49.14-.03.28-.06.42-.09,7.1-1.36,13.58-1.43,20.25-.92-.02.1,0,.22.08.38,1.27,2.45,3.28,4.43,5.6,5.9,2.37,1.5,5.02,2.5,7.72,3.21,1.09.28,2.18.52,3.29.72.53.09,1.06.18,1.6.25.46.07,1.1.27,1.54.04.06-.03.12-.07.15-.14.04-.08.03-.17.01-.25-.17-.84-.81-1.58-1.31-2.25-.64-.86-1.31-1.7-2.02-2.52-1.5-1.72-3.17-3.32-5.08-4.58-3.18-2.09-6.9-2.84-10.44-1.47-8.03-1.72-17.72-.59-27.04,1.82,7.82-4.27,16.25-7.65,25.22-8.98,11.08-1.64,33.6.69,33.51.63,4.41.95,8.66,2.38,12.5,4.77.21,4.17,2.49,7.34,5.94,9.53.69.45,5.9,3.46,7.28,3.45.14,0,.24-.03.29-.11-.35-.31-.34-.97-.41-1.41-.14-.85-.48-1.69-.8-2.5-.66-1.67-1.49-3.29-2.55-4.75-2.13-2.91-5.24-4.86-8.92-4.74-4.93-3.27-10.57-4.95-16.36-6.01,1.77-.13,3.54-.19,5.31-.14,1.75.04,3.5.17,5.23.38.07.15.2.28.34.36,4.65,2.73,10.03,4.01,15.09,1.73.75-.34.68-.7.35-.89Zm-9.69-9.64c-2.86.2-5.68.9-8.24,2.03,2.4-1.68,5.13-2.76,8.24-2.03Zm-1.61.95c-1.52.56-3.08,1.11-4.72,1.61-.87.26-1.75.5-2.6.78,1.99-1.48,4.32-2.37,7.32-2.39Zm-1.28,1.23c-2.06,1.2-4.36,1.91-6.85,2.34,2.01-1.06,4.32-1.76,6.85-2.34Zm3.26-.83c-2.7,2.43-6.42,3.56-10.3,4.03,3.51-1.13,7.04-2.44,10.3-4.03Zm-42.08.4c.83-1.4,2.81-3.8,4.34-4.39-.41,1.91-2.8,3.89-4.34,4.39Zm2.83-5.99c-2.11,1.39-4.19,2.99-6.54,4.09,1.67-2.57,3.89-3.97,6.54-4.09Zm.41.82c-1.92,1.97-4.21,3.59-6.92,4.81,2.07-1.91,4.32-3.52,6.92-4.81Zm-2.13,2.8c-1.6,2.35-3.59,3.67-6.14,4.16,1.8-1.71,3.93-2.99,6.14-4.16Zm-39.54,17.69c1.82-3.26,3.07-6.9,3.97-10.32.65,4.2-.34,7.93-3.97,10.32Zm.15-2.51c.51-2.04.95-3.76,1.77-6.31.36-1.13.76-2.25,1.09-3.39.33,3.8-.74,6.91-2.86,9.69Zm-.43-2.42c.11-3.09,1.11-7.76,2.75-10.83,0,3.5-1.7,7.78-2.75,10.83Zm1.73-10.14c-1.41,4.61-2.8,9.39-3.27,14.24-1.13-5.24.32-10.15,3.27-14.24Zm-12.49,7.64c.63,3.78.56,4.47.58,6.78-.4-.31-1.24-4.22-.58-6.78Zm1.03-1.32c1.75,3.19,2.32,6.55.54,10.07-.34-3.34-.45-6.74-.54-10.07Zm-15.15,28.58c.65-3.56,1-7.2,1.44-10.83.92,3.72.46,7.71-1.44,10.83Zm1.85-2.84c.47-2.7.59-5.67.47-8.38.88,2.8.54,5.66-.47,8.38Zm-1.39-9.54c-.62,2.8-1.48,4.66-2.05,7.18.01-2.54.52-4.97,2.05-7.18Zm.12,1.63c-.09,3.45-.74,6.9-1.34,10.41-.09-3.6.03-7.08,1.34-10.41Zm-16.92,25.92c-.92-1.95-1.5-4.19-1.52-6.64,1.01,2.06,1.6,4.24,1.52,6.64Zm-1.15.81c-1.1-2.3-3.77-11.68-2.76-11.02.89.57,2.32,8.58,2.76,11.02Zm-2.43-2.09c-.19-.77-.39-1.8-.51-2.57-.11-.72-.38-2.66-.33-3.41.24.67.51,1.66.56,1.93.07.37.12.75.19,1.12.12.62.2,1.02.54,2.3.2.76.41,1.52.64,2.27.21.7.33,1.56.72,2.18-.82-1.32-1.45-2.32-1.81-3.81Zm-2.36,9.35c2.18,3.25,1.95,4.32,2.04,6.27-.58-1.68-1.52-4.52-2.04-6.27Zm-1.52-.44c1.46,1.69,2.44,5.6,2.69,7.52-.74-1.79-4.03-9.07-2.69-7.52Zm.45,5.94c-.2-.59-.45-1.24-.59-1.85-.13-.57-.3-2.01-.31-2.62.24.51.46,1.07.52,1.27.08.29.14.58.23.87.18.6.43,1.41.64,1.99.07.2.64,1.84.72,2.04-.12.09-.67-.71-.66-.56-.11-.26-.44-.86-.53-1.13Zm48.72,41.79c-.12-.43-.43-.89-.66-1.24-.94-1.4-1.6-2.64-2.42-4.11-2.73-5.08-4.65-9.19-5.86-12.76-2.31-6.71-1.59-12.93,1.43-14.95,2.21-1.48,4.39-.75,6.41,2.27,2.5,3.72,4.26,9.62,4.43,15.91.17,4.78-.48,8.08-2.95,15.46l-.39-.58Zm-2.89,9.52l.86,1.78c4.61,10.39,7.04,18.04,8.03,25.29,1.63,12.23-2.96,23.23-12.61,29.7-16.16,10.84-39.75,5.08-51.6-12.59C-1.16,149.8.95,127.82,14.93,114.74c.79,4.19,1.88,6.83,3.99,9.97,8.03,11.98,24.31,14.38,37.45,5.56,1.63-1.09,2.79-1.87,4.88-3.78,3.57,13.62-.16,25.9-9.69,32.29-8.49,5.69-20.73,3.28-26.57-5.44-1.33-1.98-2.03-3.53-2.93-6.63l-1.4.43c.71,3.07,1.49,4.73,3.05,7.06,6.71,10,19.57,12.33,30.03,5.31,7.56-5.07,12-13.27,11.9-21.97-.09-4.15-.76-7.41-2.56-12.61.93-1.13,1.32-1.56,2.17-2.8Zm-46.31-10.74c12.79-8.58,30.12-5.36,38.62,7.31,1.25,1.86,1.87,3.3,3.12,6.16-1.98,1.83-2.94,2.65-4.69,3.82-12.67,8.5-27.78,6.33-35.35-4.95-2.18-3.26-3.16-5.97-3.84-10.74.85-.74,1.67-1.29,2.13-1.6Zm13.81-28.76c-2.29,2.01-4.66,4.03-7.27,5.96,1.92-2.36,4.47-4.7,7.27-5.96Zm.36.72c-1.63,2.42-3.81,4.19-6.39,5.48-.03-.03-.08-.05-.12-.06,2.11-1.92,4.31-3.71,6.51-5.42Zm-3.34-.13c-1.64,2.17-3.43,3.94-5.16,5.05.97-2.37,2.86-3.97,5.16-5.05Zm-4.17,6.91c1.95-1.09,2.79-1.54,5.32-3.13-1.21,1.93-2.91,3.11-5.38,3.17.02-.01.04-.03.06-.05Zm22.7-33.9c2.82.36,5.86.45,8.63.6-2.54.81-5.43.83-8.63-.6Zm2.41-.66c-.05-.08-.14-.16-.27-.2-.14-.05-.28-.08-.42-.13,3.03-.27,6.19-.21,9.31-.22-2.44.83-5.55.9-8.62.55Zm8.03-1.5c-3.6.11-7.05.31-10.48.17,3.09-1.1,6.69-.76,10.48-.17Zm-5.34-1.65c-2.47.41-4.86.69-6.88,1.46,1.85-1.51,4.23-1.79,6.88-1.46Zm11.83-20.34c3.1-.62,6.2-.69,9.2.43-3.07-.08-6.19-.38-9.26-.33.02-.03.04-.06.06-.09Zm9.21,1.36c-3.09.76-5.87.53-8.67-.17,2.88-.19,5.75-.18,8.67.17Zm29.9,1.97c-2.31-2.4-4.73-4.82-7.21-7.05,3.25,1.21,5.52,3.7,7.21,7.05Zm-1.67-.1c-2.7-.58-4.81-4.4-4.71-4.91,1.85,1.34,3.48,2.87,4.71,4.91Zm5.23-9.74c2.87,1.14,5.79,2.38,8.57,4.13-3.47-.86-5.46-1.96-8.57-4.13Zm3.87.88c-2.01-.87-3.47-1.81-5.42-2.8,3.67.59,6.76,1.84,9.17,4.25-1.38-.28-2.44-.88-3.76-1.44Zm2.98-.52c-3.19-1.91-6.74-3.23-10.38-3.83,4.04-.72,7.45,1.14,10.38,3.83Zm1.9,5.02c-5.01-.45-9.65-2.69-12.85-6.94,3.92,2.83,8.41,4.94,12.85,6.94Zm40.25-4.93c-2.12-1.77-4.36-3.72-6.44-5.39,3.07.57,5.2,2.48,6.44,5.39Zm1.03,3.38c-2.41-2.3-5.1-4.74-7.74-7.74,3.28,1.82,6.6,4.38,7.74,7.74Zm-8.27-6.9c2.77,2.28,5.18,4.83,7.48,7.4-2.98-1.78-5.71-3.96-7.48-7.4Zm2.99,5.29c-2.36-1.08-3.88-3.12-4.38-6.14,1.22,2.21,2.91,4.1,4.38,6.14Zm-6.94-13.17c3.02.47,6.14.66,9.18,1.09-3.07,1.28-6.15.49-9.18-1.09Zm1.31-.79c2.93-.87,5.55-.6,8,1.02-2.74-.07-5.37-.46-8-1.02Z"/>
  </g>
  <g>
    <path class="cls-1" d="m106.46,160.12c1.32,1.88,2.15,3.73,1.79,6.1-.39,2.53-1.97,4.87-4.09,6.29-4.19,2.81-10.13,1.68-12.92-2.5-2.9-4.33-1.7-10.2,2.64-13.11,2.75-1.84,5.89-1.97,8.92-.87l-.37,1.15c-2.69-1.1-5.57-.98-8.01.67-3.69,2.47-4.69,7.83-2.26,11.46,2.5,3.73,7.69,4.79,11.46,2.26,1.62-1.09,2.76-2.81,3.34-4.65.56-1.98.2-3.56-.84-5.25l-5.41,3.63-.61-.9,6.38-4.28Z"/>
    <path class="cls-1" d="m114.41,143.42l.96-.65,6.32,9.42c1.04,1.54,1.92,2.87,1.75,4.82-.24,1.85-1.4,3.5-2.93,4.52s-3.49,1.47-5.29.99c-1.87-.58-2.76-1.9-3.79-3.44l-6.32-9.42.96-.65,6.13,9.14c.91,1.36,1.88,2.81,3.34,3.29,1.39.46,3.21-.03,4.37-.81s2.31-2.28,2.41-3.74c.11-1.53-.86-2.97-1.77-4.33l-6.13-9.14Z"/>
    <path class="cls-1" d="m130.68,153.11l3.85-2.58.61.9-4.81,3.23-10.14-15.12.96-.65,9.54,14.22Z"/>
    <path class="cls-1" d="m128.65,133.87l2.73-1.83c2.21-1.48,4.19-2.29,6.89-1.86,2.58.42,4.76,1.9,6.21,4.06s1.93,4.61,1.39,7.09c-.59,2.72-2.1,4.32-4.35,5.82l-2.73,1.83-10.14-15.12Zm12.24,12.4c1.99-1.33,3.36-2.84,3.85-5.23.42-2.14-.01-4.35-1.22-6.16-1.29-1.92-3.26-3.22-5.56-3.57-2.32-.33-4.11.37-6,1.64l-1.74,1.17,8.93,13.31,1.74-1.17Z"/>
    <path class="cls-1" d="m150.59,122.76c-1.41-.63-2.84-.68-4.26.27-1.62,1.09-1.97,3.21-.91,4.8s3.01,1.24,4.62,1l3.9-.43c1.63-.04,2.83.49,3.74,1.85,1.68,2.51.66,5.92-1.79,7.57-2.11,1.41-4.62,1.21-6.63-.26l.59-.95c1.72,1.17,3.65,1.5,5.48.28,1.99-1.33,2.68-4.07,1.34-6.07-1.14-1.7-3.37-1.26-5.11-1.02l-3.7.39c-1.42.05-2.57-.45-3.38-1.66-1.51-2.25-.96-4.91,1.3-6.43,1.52-1.02,3.52-1.17,5.12-.35l-.31,1.02Z"/>
    <path class="cls-1" d="m168.15,111.15l-.04.03,3.45,16.55-13.98-9.49-.04.03,5.81,14.25-.92.62-7.23-17.8,14.78,10.03-3.65-17.49,13.72,13.44-.92.62-10.98-10.78Z"/>
    <path class="cls-1" d="m174.39,104.5l3.68,5.49,6.1-4.09.61.9-6.1,4.09,4.64,6.92,6.26-4.2.61.9-7.22,4.84-10.14-15.12,7.22-4.84.61.9-6.26,4.2Z"/>
    <path class="cls-1" d="m184.09,96.68l2.73-1.83c2.21-1.48,4.19-2.29,6.89-1.86,2.58.42,4.76,1.9,6.21,4.06,1.4,2.09,1.93,4.61,1.39,7.09-.59,2.72-2.1,4.32-4.35,5.82l-2.73,1.83-10.14-15.12Zm12.24,12.4c1.99-1.33,3.36-2.84,3.85-5.23.42-2.14-.01-4.35-1.22-6.16-1.29-1.92-3.26-3.22-5.56-3.57-2.32-.33-4.11.37-6,1.64l-1.74,1.17,8.93,13.31,1.74-1.17Z"/>
  </g>
</svg>