<?xml version="1.0" encoding="UTF-8"?>
<svg id="Lag_1" data-name="Lag 1" xmlns="http://www.w3.org/2000/svg" viewBox="0 0 209.73 227.77">
  <defs>
    <style>
      .cls-1 {
        fill: #1D1D23;
      }
    </style>
  </defs>
  <path class="cls-1" d="m208.17,164.4c-4.11,5.55-8.71,10.65-13.75,15.22-1.66.62-3.36,1.12-5.11,1.45-2.61.5-5.74.87-8.51.27-.01-.1-.06-.2-.14-.29-3.71-4.23-9.6-6.59-14.87-7.14-2.86-.3-1.25.76-.88,1.19,3.95,4.59,9.12,7.78,15.1,6.84.1-.02.2-.04.28-.06,2.74.67,5.84.4,8.47-.06,1.51-.26,2.99-.64,4.44-1.11-.31.28-.63.55-.95.82-5.63,3.12-11.19,5.14-17.06,6.74-.01-.1-.07-.21-.2-.34-3.11-2.88-7.32-4.02-11.47-4.19-2.14-.09-4.29.07-6.42.38-1.02.15-2.46.68-3.44,1.02-2.77.95,2.69,3.19,3.67,3.73,1.99,1.11,4.46,2.03,6.69,2.57,3.69.89,7.44.35,10.31-2.13,4.46-.6,9.1-2.17,13.69-4.36-2.07,1.59-4.19,3.1-6.37,4.52-10.71,6.97-22.63,11.88-35.05,14.81-5.87.27-11.76-.98-16.25-4.66-1.04-5.79-6.7-8.08-11.7-9.95-.05-.02-.11-.04-.16-.02-.04.01-.08.03-.11.06-.61.52.9,3.46,1.08,3.82.69,1.37,1.52,2.69,2.55,3.84,2.01,2.25,4.76,3.61,7.82,3.26.15,0,.27-.01.37-.05,3.3,2.71,7.64,4.18,12.14,4.63-.07.01-.14.03-.2.04-3.69-.22-12.58.69-18.52-1.11.05-.35-2.13-3.86-2.36-4.18-.48-.64-.98-1.26-1.51-1.85-1.01-1.11-2.13-2.22-3.4-3.08-1.37-.92-2.93-1.31-4.53-1.66-1.56-.35-3.19-.4-4.79-.46-.42-.02-.85-.02-1.24.12-.12.04-.23.11-.29.22-.04.08-.04.17-.03.26.05.35.26.65.47.93.88,1.18,1.75,2.36,2.7,3.47,4.27,5.01,7.17,6.32,14.6,6.78,2.39.67,4.89,1.05,7.32,1.39,1.28.18,2.55.31,3.84.42-4.6.59-9.24.94-13.89,1.01-2.41.04-4.85.01-7.3-.08-1.16-.09-2.31-.15-3.46-.19-8.53-.6-17.08-2.23-25.05-5.72-2.69-1.18-5.3-2.53-7.84-4.01-2.44-2.15-4.7-4.91-5.49-8.7,1.85-4.01,1.84-7.89.59-10.95-.64-1.57-1.55-2.9-2.58-4.05-.27-.3-2.46-2.81-3.28-2.09-.04.04-.08.08-.11.13-.04.07-.05.14-.06.22-.62,7.2-1.16,15.45,4.65,17.53.02,0,.04,0,.06.01.42,2.06,1.19,3.89,2.23,5.45-5.6-3.62-10.92-7.78-16.15-11.97-1.26-1.2-2.46-2.49-3.59-3.87-1.96-2.45-3.74-5.04-5.31-7.74.11-.15.18-.37.13-.74-.62-4.3-1.85-9.24-5.35-12.31-.26-.23-.65-.19-.83.54-1.21,4.97,1.27,9.24,5.07,12.5.08.07.18.12.3.16.68,1.18,1.41,2.34,2.17,3.49.44.76.91,1.49,1.38,2.21-2.87-2.91-5.95-5.63-9.24-8.13-.02-.04-.03-.08-.05-.13-2.31-4.42-5.18-9.71-10.76-10.92-1.2-.26-2.45-.33-3.7-.25-.46.03-.59.34-.5.83-.03,4.7,3.41,7.9,7.67,9.62,1.38.55,2.85,1.04,4.33,1.32.4.08,2,.41,2.72.16,4.54,3.47,8.69,7.32,12.42,11.54-1.69-1.24-3.49-2.35-5.4-3.31-.26-.19-.52-.38-.78-.57-.69-.51-1.38-1.02-2.08-1.51-1.37-.97-2.8-1.9-4.36-2.6-2.43-1.08-5.2-.98-7.97-.63-.25.03-.38.31-.36.53,0,.08,0,.16.04.24,1.49,2.91,4.38,4.54,7.59,5.27,1.22.28,2.47.44,3.74.52,1.32.08,2.7.19,4.04-.06.2-.04.42-.1.6-.2,1.43.76,3.4,1.95,5.27,3.1-.04.23,15.59,13.27,24.1,18.02-2.3-.54-4.63-.89-6.98-1.05-.03,0-.07-.02-.09-.03-.26-.1-.52-.21-.77-.32-.54-.23-1.07-.48-1.6-.73-2.07-.98-4.14-2.02-6.41-2.38-1.46-.23-2.87-.13-4.3.24-1.38.36-2.72.77-3.9,1.67-.12.09-.25.22-.23.37.01.11.09.19.17.26.85.77,1.64,1.55,2.64,2.11,1.19.66,2.49,1.07,3.82,1.31,1.93.34,3.92.32,5.88.05.95-.13,1.89-.33,2.82-.58.44-.12.87-.26,1.31-.41.22-.08.89-.32,1.25-.63,2.53-.02,8.02,1.11,8.09,1.03,2.66,1.4,5.39,2.65,8.22,3.68,3.56,1.3,7.21,2.27,10.9,2.99-2.63.37-5.14.95-7.47,1.76-3.68-.91-7.27.29-10.16,2.76-1.74,1.48-3.53,3.42-4.81,5.31-.63.93-4.49,5.39-1.59,4.99,1.02-.14,2.55-.32,3.53-.65,2.03-.68,4.02-1.51,5.9-2.56,3.62-2.02,6.87-4.95,8.34-8.92.06-.17.06-.3.03-.39,3.59-.73,7.15-1.27,10.81-1.54,2.07.29,4.15.49,6.24.65-.68.16-1.36.33-2.03.54-2.56.78-5.45,1.94-7.59,3.77-.08.02-.17.04-.28.07-5.76,1.86-8.93,7.04-10.38,12.92-.14.55-1.1,2.22,1.32.66,4.45-2.86,8.64-7.63,10.04-13.08.03-.12.03-.23,0-.33,2.21-1.78,5.16-2.87,7.72-3.6,1.21-.35,2.44-.61,3.68-.8,3.93.19,7.86.18,11.73.03,1.77-.07,3.53-.19,5.29-.34-1.11.65-2.12,1.43-3,2.33-.24-.13-2.23.4-2.82.69-.61.3-1.18.66-1.69,1.05-1.03.79-1.84,1.74-2.48,2.77-.65,1.05-1.11,2.19-1.45,3.37-.17.59-.3,1.2-.4,1.81-.05.3-.09.61-.13.92-.08.69-.56,3.62-.27,3.84.24.18,1-.75,1.14-.92.04-.05.08-.1.13-.15,1.82-2.09,3.98-3.97,5.67-6.13.84-1.08,1.58-2.22,2.05-3.48.23-.61.4-1.25.48-1.91.03-.25.05-.5.06-.75,1.36-1.51,3.01-2.74,4.87-3.61-.03,0-.06-.02-.09-.03,7.32-.74,14.55-2.13,21.58-4.18-.66.39-1.33.79-1.98,1.21-2.06,1.31-4.18,2.7-6.08,4.31-.17-.02-5.68,5.12-7.76,7.88-2.64,3.49-4.41,9.15-4.35,9.4.03.11.07.22.14.3.26.29,3.62-.86,4.34-1.2.75-.35,1.45-.78,2.08-1.25,1.28-.96,2.31-2.13,3.15-3.42.85-1.32,1.49-2.76,1.97-4.27.24-.75.44-1.53.61-2.31.08-.39.6-4.49.41-4.78,1.83-1.52,3.85-2.85,5.83-4.11,1.46-.93,2.95-1.8,4.47-2.62.24-.08.48-.14.71-.22,4.98-1.62,9.86-3.58,14.58-5.88-.07.06-.13.12-.2.19-.48.44-1.35,1.31-1.74,1.87-5.51,2.69-11.39,7.45-10.74,14.17-.03.47.1.73.48.64,6.88-1.66,8.8-7.94,10.95-14,.42-.48.8-1.02,1.21-1.46.85-.9,1.83-1.66,2.65-2.58.06-.07.09-.14.12-.21,5.06-2.65,9.91-5.7,14.47-9.14-.88.95-1.75,1.92-2.58,2.92-1.56,1.88-3.15,3.85-4.47,5.96-.1.03-.2.07-.28.11-.81.38-1.49,1.04-2.07,1.59-.61.57-1.14,1.18-1.59,1.83-.92,1.31-1.54,2.74-1.94,4.22-.4,1.51-.56,3.08-.55,4.67,0,.79.05,1.59.13,2.38.04.39.09.79.15,1.19.13.88.22,1.77.51,2.66.09.29.16.75.57.94.34.15.78.05.88-.2.03-.07.06-.15.1-.22,1.4-3.17,3.26-6.19,4.49-9.42.62-1.61,1.08-3.27,1.21-4.98.07-.84.05-1.69-.07-2.54-.06-.42-.12-.86-.26-1.28-.05-.17-.12-.47-.25-.69-.06-.1-.13-.19-.23-.24-.01,0-.03,0-.05-.02,1.25-1.95,2.73-3.78,4.19-5.53,2.04-2.46,4.25-4.77,6.59-6.94,6.22-5.29,11.8-11.37,16.52-18.25.46-.67-.42-1.6-.94-.9Zm-31.55,14.62c.2.13.99,1.12,1.16,1.29-2.11-.86-5.97-2.71-7.94-3.86,1.93-.17,5.81,1.93,6.78,2.57Zm-8.39-2.1c3.04,1.67,6.14,3.05,9.17,4.2-3.76-.02-6.7-1.72-9.17-4.2Zm4.35,10.54c-4.62-1.54-9.55-2.09-14.44-2.19,5.01-.62,10.08-.29,14.44,2.19Zm-4.38-.07c-3.27.26-6.44.05-9.46-.99,3.41-.29,6.6-.14,9.46.99Zm-4.42.61c2.19.14,4.35.39,6.51.67-3.61.88-6.87.38-10.07-.9,1.18.11,2.37.15,3.55.23Zm-2.16,1.35c3.64.72,7.43.77,11.06.1-3.56,2.04-7.4,1.44-11.06-.1Zm-40.12,6.2c1.83,1.34,3.98,2.67,5.87,4.2-2.5-.55-4.41-2.13-5.87-4.2Zm-1.1-2.83c2.46,1.73,4.91,3.7,7.14,6.13-2.66-1.48-5.4-3.59-7.14-6.13Zm7.11,4.99c-2.08-1.92-4.18-3.82-6.47-5.47,2.58,1.08,4.91,2.56,6.51,5.34-.03.04-.04.08-.04.13Zm1.52.74c-1.24-1.72-2.7-3.21-4-4.69,1.83.75,3.29,2.19,4.06,4.75-.02-.02-.04-.04-.06-.05Zm-11.77-.63c-2.23-.86-4.24-1.94-5.98-3.26,2.49.15,4.51,1.11,5.98,3.26Zm1.64,2.74c-2.54-.29-6.95-3.02-8.71-5.11,2.44.77,6.9,3.39,8.71,5.11Zm-10.54-4.99c.43.6,4.81,3.93,10.75,7.07-.74-.15-6.02-.53-10.75-7.07Zm-41.55-14.26c1,2.06,1.73,4.56,2.92,6.4-1.88-1.47-2.92-3.2-2.92-6.4Zm.45-5.57c.94,3.34,1.95,6.63,2.45,10.19-1.75-2.77-2.21-6.36-2.45-10.19Zm3.05,8.25c-.69-3.06-1.57-5-2.25-9.04,2.16,1.78,2.29,6.35,2.28,8.6,0,.15-.02.29-.03.44Zm.04-7.09c1.35,2.3,1.99,5.11,1.3,8.55-.71-2.63-.73-5.84-1.3-8.55Zm-28.06-15.77c.77,2.2,2.02,4.62,3.13,7.59-2.09-2-3.34-4.5-3.13-7.59Zm.84-.34c1.94,1.86,2.89,3.97,2.8,6.6-1.15-2.1-2.12-4.27-2.8-6.6Zm-7.43,1.98c-1.92-1.48-4.37-2.83-6.84-3.74,3.3.02,5.33,1.57,6.84,3.74Zm-7.87-1.4c1.65,2.23,3.79,4.41,6.1,5.91-3.13-.91-5.36-2.81-6.1-5.91Zm1.12-.4c2.86,2.36,5.66,4.8,8.7,6.97-3.78-1.18-6.87-3.88-8.7-6.97Zm.89-.63c3.53,1.45,5.99,3.97,8.32,6.73-3.11-2.07-5.81-4.35-8.32-6.73Zm4.98,14.72c1.83,1.16,6.25,2.72,8.32,3.47-2.92.26-6.75-1.81-8.32-3.47Zm.75-.62c2.38.18,4.6.86,6.66,2.72-2.32-.68-4.53-1.54-6.66-2.72Zm.59-.91c1.77.06,4.11.49,5.71,1.42.88.52,1.26.78,1.91,1.52-2.34-1.33-4.94-2.3-7.62-2.94Zm26.36,23.31c-1.79.52-4.18.68-5.42.08,1.41-.25,3.93-.42,5.42-.08Zm-6.17,2.42c2.58.49,5.16.99,7.56,1.51-2.69.17-5.34-.17-7.56-1.51Zm.26-.87c2.64-.24,6.39.44,9.43,1.65-3.53,0-6.66-.8-9.43-1.65Zm3.47-.58c2.74,0,4.44,0,7.32,1.19-2.46-.11-4.9-.55-7.32-1.19Zm29.71,12.33c-3.54,1.04-6.9,2.8-9.82,5.09,2.57-3.03,5.73-5.3,9.82-5.09Zm-1.78,1.78c-1.91,1.84-3.62,2.43-5.51,3.54-1.02.6-2.06,1.18-3.07,1.81,2.24-2.61,5.14-4.27,8.57-5.35Zm-1.29,2.1c-2.45,2.58-4.6,3.85-7.99,5.16,2.29-2.16,4.92-3.88,7.99-5.16Zm-8.02,6.43c4.31-2.3,8.47-5.01,11.9-8.48-2.61,4.44-6.86,7.23-11.9,8.48Zm19.05-3.18c.36.5-2.78,4.83-4.64,5.76,1.24-1.92,2.57-3.74,4.06-5.45-.07.23.43-.5.58-.31Zm-6.28,6.07c1.41-3.25,3.3-6.09,6.28-7.89-1.5,2.37-3.93,4.98-6.28,7.89Zm31.07-9.58c-1.31,1.81-2.16,3.45-3.63,5.13.32-2.24,1.77-4.49,3.63-5.13Zm1.16.22c-1.15,2.27-2.73,4.62-4.47,6.62.87-2.7,2.33-4.91,4.47-6.62Zm.28,2.34c-.36.51-.53.67-1.09,1.62-.69,1.16-2.45,2.86-2.94,3.23.27-.49,1.45-2.25,1.58-2.41.18-.24.4-.45.57-.7,1.19-1.78,2.22-3.02,2.34-3.11-.15.24-.29,1.15-.45,1.38Zm11.03,8.31c.48-1.48.66-2.81,1.26-4.03.34-.7,2.12-2.64,2.63-3.24.48-.55,1.26-.65,1.87-1.09-.35.62-.94,1.47-1.1,1.68-.24.29-.5.57-.73.87-.48.62-.95,1.25-1.41,1.9-.45.64-.89,1.29-1.32,1.96-.39.61-.97,1.26-1.2,1.96Zm3.08-.29c1.17-2.65,2.38-4.22,4.43-6.28-.66,2.34-2.27,5.05-4.43,6.28Zm-1.36-.36c1.08-2.75,3.08-5.81,5.8-8.27-1.09,2.25-4.03,6.5-5.8,8.27Zm26.97-19.99c-1.18,2.25-2.79,4.75-4.53,7.07.62-2.87,2.32-5.19,4.53-7.07Zm3.01-1.56c-1.99,3.06-4.11,6.03-6.58,8.72,1.61-3.15,3.88-6.48,6.58-8.72Zm-6.49,10.55c2-1.64,3.73-3.48,5.32-5.24-.67,2.52-2.45,4.3-5.32,5.24Zm.7-1.47c2.24-3.09,4.43-5.8,6.29-8.4-1.21,3.16-3.1,6.14-6.29,8.4Zm15.31-4.94c-.21-2.41.53-4.68,2.2-6.45-.53,2.14-1.36,4.28-2.2,6.45Zm.4,4.58c-.09-2.56,1.46-8.98,3.2-11.11-.61,2.38-2.34,8.79-3.2,11.11Zm4.4-8.04c-.23.78-.48,1.79-.8,2.49-.3.67-1.56,3.75-2,4.36.15-.7.58-3.02.67-3.27.13-.35.27-1.17.4-1.52.27-.74.55-1.6.78-2.35.23-.75.44-.93.64-1.69.19-.71.54-1.5.54-2.23,0,1.55.2,2.74-.23,4.21Z"/>
  <g>
    <path class="cls-1" d="m151.46,94.2c2.8,0,4.9-2.1,4.9-4.76,0-2.24-1.68-3.92-3.92-3.92-2.66,0-4.9,2.38-4.9,5.04,0,2.24,1.54,3.64,3.92,3.64Z"/>
    <path class="cls-1" d="m206.48,118.14c-4.48,10.92-8.96,16.1-14,16.1-2.38,0-3.5-1.68-3.5-5.04,0-1.26.14-2.24.42-3.78,4.2-.42,6.3-.98,8.68-2.66,4.2-2.8,7-8.54,7-14.14,0-4.9-2.66-8.26-6.44-8.26-5.87,0-12.64,8.82-15.05,18.11l-.21.51c-4.48,11.2-6.86,15.12-9.52,15.12-.98,0-1.68-.84-1.68-2.1,0-1.68.28-2.8,3.36-11.06,2.8-7.84,3.64-11.34,3.64-14.28,0-3.36-2.24-6.02-5.18-6.02-2.66,0-4.76,1.4-7.98,5.04l1.4-4.48c-1.54.14-2.1.28-2.94.28-.56,0-1.54-.14-2.66-.28l-1.4-.14-4.37,15.58-.11-.04c-2.24,5.74-3.22,8.12-4.62,10.78-2.24,4.48-4.2,6.58-5.88,6.58-.84,0-1.68-.98-1.68-1.96,0-.7.28-1.96.56-3.36l.7-2.94,6.86-24.92c-1.54.28-2.24.28-3.5.28-1.12,0-1.82,0-3.36-.28l-4.27,15.84-.07-.02c-.98,2.24-1.68,2.8-3.5,2.8-.42,0-.84-.14-1.54-.28,1.82-5.32,2.8-10.36,2.8-13.72,0-2.24-.84-3.64-2.1-3.64-1.12,0-2.52,1.26-3.5,3.22-1.26,2.66-2.24,6.02-2.24,8.4,0,2.94.98,4.9,3.22,6.86-1.82,3.92-2.8,5.88-4.06,7.98-2.24,3.64-4.76,5.88-6.72,5.88-1.26,0-2.24-1.26-2.24-2.8,0-.98.28-2.1.7-3.92l15.4-56c-1.82.28-2.52.28-3.64.28s-1.82,0-3.22-.28l-12.4,45.29-.2-.07c-4.9,12.74-7.56,17.08-10.36,17.08-1.12,0-1.96-.84-1.96-1.82,0-.56.14-1.4.42-2.38.28-.84.7-2.24,1.26-4.34.56-2.38,1.4-5.46,2.52-9.1.42-1.54.84-3.36,1.4-5.04,1.26-4.62,1.54-5.88,1.96-7.56l.7-2.66c-1.26.28-1.82.28-3.08.28-1.4,0-2.1,0-3.78-.28l-1.26,4.34c-1.12-3.64-2.38-5.04-4.62-5.04-7.28,0-15.12,12.88-15.12,24.64,0,6.58,2.66,10.92,6.86,10.92,2.94,0,4.48-1.54,7.42-7,.7,4.9,2.66,7.28,6.16,7.28s5.71-2.21,9.44-10.28c-.05.53-.06,1.03-.06,1.6,0,5.18,2.66,8.68,6.86,8.68,4.76,0,8.26-4.34,12.88-15.26.98.28,1.54.42,2.24.42.95,0,1.72-.19,2.38-.58v.02c-1.27,5.18-1.55,6.02-1.55,7.7,0,4.34,2.8,7.7,6.44,7.7,3,0,5.39-2.15,8.24-7.84l-2.08,7.42c1.4-.28,1.96-.42,3.08-.42.7,0,1.96.14,3.08.14l.84.14c.84-3.22,1.12-4.48,3.22-11.62l2.24-7.7c2.1-6.86,6.16-13.02,8.68-13.02.84,0,1.4.84,1.4,1.82,0,.84-.14,1.82-.56,3.36-.28,1.54-.7,2.8-3.5,10.22-1.82,5.04-2.52,8.12-2.52,10.64,0,4.06,2.52,7,6.02,7,3.08,0,5.46-1.96,7.56-5.88.83-1.57,1.51-3.04,2.38-5.16,0,.04,0,.08,0,.12,0,6.3,3.92,10.78,9.24,10.78,4.62,0,8.96-3.22,12.18-8.96,1.68-2.94,2.66-5.18,4.48-9.8l-1.54-.56-.56,1.54Zm-12.04-9.1c2.1-4.9,3.5-6.86,5.04-6.86,1.4,0,2.38,1.54,2.38,3.5,0,3.64-1.82,10.08-3.78,13.16-2.1,3.5-4.2,4.76-8.26,4.76.98-4.62,2.66-9.52,4.62-14.56Zm-94.21,14.28c-2.24,6.72-4.62,10.22-6.86,10.22-1.26.14-2.24-1.26-2.24-3.36,0-2.52.42-5.32,1.82-9.94,1.12-3.92,2.66-8.68,4.2-12.6,1.54-4.34,2.52-5.74,3.78-5.74,1.54,0,2.94,2.52,2.94,5.46,0,3.5-1.4,9.94-3.64,15.96Z"/>
    <path class="cls-1" d="m209.67,61.37c-2.22-4.5-7.01-7.67-11.3-10.02-.24-.12-.43-.18-.59-.2-.57-.49-1.21-.93-1.73-1.34-1.19-.95-2.42-1.86-3.69-2.71-1.21-.81-2.45-1.57-3.71-2.27,1.14.44,2.31.8,3.53,1.07.01,0,.03.02.04.02,4.7,2.95,11.07,5.75,16.14,3.7.4-.16.17-.49.13-.55-3.36-6.07-10.83-5.34-15.98-4.02-.02,0-.03.02-.05.03-.19.05-.34.1-.46.15-2.23-.52-6.94-2.65-6.94-2.65-7.86-6.6-16.13-12.68-25.51-16.43-.52-.21-1.05-.4-1.58-.6,1.55.02,3.1-.05,4.65-.2.03,0,.07,0,.09.01.27.06.54.12.82.19.57.14,1.13.3,1.7.46,2.2.62,4.42,1.31,6.72,1.29,1.48-.01,2.85-.34,4.2-.95,1.3-.58,2.56-1.2,3.57-2.29.1-.11.21-.26.17-.41-.03-.11-.12-.17-.21-.23-.96-.62-1.87-1.26-2.95-1.64-1.28-.46-2.63-.65-3.98-.66-1.96-.02-3.92.33-5.81.92-.91.29-1.81.63-2.68,1.04-.41.19-.82.4-1.22.62-.2.11-.82.46-1.13.83-1.95.34-3.67.46-5.89.33-10.22-3.44-21.12-4.45-31.67-4.39,1.81-.6,3.53-1.31,5.14-2.12,3.77.41,7.17-1.27,9.7-4.1,1.52-1.7,2.73-3.68,3.73-5.73.85-1.73,1.31-3.53,1.8-5.38.02-.09.04-.19-.01-.26-.35-.42-3.63,1.31-4.25,1.56-2.07.81-4.11,2.28-5.83,3.65-3.05,2.43-5.59,5.62-6.45,9.49-.04.18-.02.3.03.39-2.94,1.03-5.88,1.91-8.9,2.63-2.71.12-5.4.34-8.09.64.72-.27,1.44-.56,2.15-.88,2.43-1.12,5.14-2.66,7.01-4.76.08-.03.17-.06.26-.11,5.46-2.62,7.9-8.18,8.55-14.2.06-.56.35-1.92-.64-.92-3.65,3.83-8.29,9.17-8.94,14.76-.01.12,0,.23.05.32-1.95,2.06-4.73,3.54-7.16,4.61-1.55.68-3.16,1.21-4.78,1.64-4.44.63-8.84,1.51-13.17,2.64.04-.04.08-.06.13-.1.51-.4,1.44-1.21,1.88-1.74,5.7-2.26,11.92-6.56,11.78-13.31.07-.47-.05-.74-.43-.68-6.99,1.13-9.37,7.25-11.98,13.13-.45.45-.87.96-1.32,1.37-.76.69-1.61,1.29-2.38,1.97-.36.1-.72.19-1.07.29-8.07,2.34-15.91,5.59-23.26,9.72.55-.57,1.09-1.15,1.62-1.74,1.63-1.82,3.3-3.73,4.69-5.79.11-.03.21-.06.28-.1.82-.35,1.52-.98,2.13-1.51.63-.55,1.18-1.14,1.66-1.77.97-1.27,1.65-2.68,2.09-4.15.46-1.5.68-3.06.73-4.64.03-.79,0-1.59-.04-2.39-.03-.4-.06-.79-.11-1.19-.1-.89-.16-1.78-.41-2.67-.08-.3-.13-.76-.53-.96-.33-.17-4.49,6.45-5.84,9.63-.68,1.58-1.2,3.22-1.4,4.93-.1.83-.11,1.68-.03,2.54.04.43.09.86.21,1.29.05.17.1.47.23.7.06.1.13.19.22.25.01,0,.03,0,.05.02-1.33,1.9-2.88,3.67-4.4,5.37-1.05,1.17-2.15,2.3-3.27,3.41-1.16.69-2.32,1.4-3.45,2.14.34-.54.65-1.08.91-1.65.27.04,1.96-1.13,2.41-1.61.48-.5.89-1.02,1.23-1.56.7-1.09,1.14-2.26,1.39-3.44.25-1.21.3-2.44.21-3.66-.05-.61-.13-1.23-.24-1.84-.06-.3-.12-.6-.19-.9-.16-.67-.28-1.35-.56-2.01-.09-.22-.17-.57-.52-.68-.29-.09-.65.03-.73.23-.02.06-.05.12-.07.18-1,2.58-2.39,5.08-3.25,7.69-.43,1.3-.73,2.63-.75,3.97,0,.65.05,1.31.19,1.96.05.24.12.49.2.73-.6,1.48-1.44,2.85-2.47,4.08-6.9,4.73-13.23,10.35-18.74,16.82-.74.61-2.31,2.49-4.8,5.93C15.54,65.08,0,82.3,0,103.44c0,11.76,5.04,23.66,13.16,31.64,7.56,7.42,17.08,11.06,28.56,11.06,13.3,0,23.66-5.04,30.66-14.7,5.88-8.4,8.54-18.2,8.54-32.62,0-.42-.14-1.96-.14-3.5,5.6-4.06,8.54-6.58,11.76-10.36,4.34-5.18,7.14-11.76,7.14-17.08,0-5.04-2.66-8.4-6.72-8.4-3.5,0-7.28,2.94-11.06,8.54-4.06,6.02-6.02,12.18-7.98,25.06l-.56,4.06c-.28.14-.56.14-.7.28l-.98.14-.98.42s-.28,0-.7.14c.42-2.38.56-3.78.56-5.46,0-9.24-4.76-18.9-11.62-23.94-5.32-3.92-11.9-6.16-18.06-6.16h-2.1c.44-.71.83-1.36,1.17-1.96,2.24-2.43,6.99-6.89,16.28-10.18,4.89,3.26,10.47.76,15.28-1.54.05-.02.1-.05.12-.1.02-.04.03-.08.03-.12.05-.8-3.12-1.75-3.5-1.87-1.47-.45-2.99-.77-4.53-.82-3.01-.11-5.9.93-7.76,3.38-.11.1-.18.2-.22.3-3.07.37-6.06,1.58-8.78,3.33,5.62-5.53,11.81-10.39,18.52-14.46,5.78-3.51,11.88-6.44,18.2-8.79,3.27-.59,6.81.17,10.05,2.41,1.42,4.18,4.1,6.99,7.11,8.34,1.54.69,3.12,1.03,4.66,1.16.4.03,3.72.34,3.82-.75,0-.05,0-.11-.01-.17-.02-.08-.06-.14-.11-.2-4.51-5.64-9.8-12-15.44-9.51-.02,0-.04.02-.06.03-2.05-1.43-4.23-2.29-6.4-2.6,10.11-3.38,20.7-5.34,31.38-5.9-.05.02-.09.04-.14.05.03.02.06.05.09.07.06.16.17.35.36.56,3.56,3.87,8.11,8.05,13.38,9.2.39.09.71-.15.36-.96-1.77-4.07-5.1-6.7-9.02-8.27-.03-.05-1.55-.41-2.86-.73,2.1-.07,4.2-.11,6.31-.08,1.79.03,3.59.09,5.4.19,1.67.52,3.33,1.08,4.97,1.68,2.62,1.34,5.06,3.02,7.25,5.03,1.95,1.8,4.11,4.1,5.27,6.69-.07.07-.13.17-.15.29-1.2,5.5.88,11.39,3.08,16.2.61,1.26,1.01.49,1.17-.05,1.86-6.4,1.15-11.9-3.16-16.16-.08-.07-.15-.13-.21-.19-1.09-2.6-3.15-4.93-5.08-6.78-1.39-1.33-2.89-2.53-4.48-3.6.13.06.27.11.4.16,6.65,2.82,12.07,6.37,17.33,10.52-.07.07-.13.18-.15.36-.31,2.75.26,5.5,1.37,8.02,1.13,2.56,2.78,4.88,4.62,6.97.74.84,1.52,1.65,2.33,2.43.39.37.78.74,1.18,1.1.35.31.77.84,1.26.89.07,0,.14,0,.2-.03.07-.04.12-.12.15-.2.33-.8.21-1.77.16-2.6-.05-1.07-.14-2.15-.28-3.22-.29-2.26-.78-4.52-1.67-6.63-1.48-3.51-4.15-6.2-7.85-7.04-5.72-5.9-14.39-10.36-23.47-13.55,8.87.81,17.75,2.7,25.95,6.59,10.12,4.81,27.52,19.28,27.47,19.19,3.13,3.25,5.87,6.8,7.72,10.92-2.15,3.58-2.02,7.48-.38,11.23.33.75,2.97,6.16,4.13,6.92.12.08.22.11.3.08-.12-.46.26-.99.44-1.4.36-.78.55-1.67.73-2.52.38-1.76.6-3.56.52-5.36-.15-3.6-1.64-6.95-4.77-8.9-2.27-5.47-6.02-10-10.24-14.1,1.54.88,3.04,1.82,4.49,2.84,1.43,1.01,2.81,2.09,4.13,3.23-.02.16.01.34.08.48,2.34,4.86,6.09,8.92,11.57,9.84.81.14.96-.21.79-.54Zm-2.68-13.4c-2.49-1.43-5.22-2.41-7.98-2.9,2.92-.06,5.8.56,7.98,2.9Zm-1.87-.11c-1.57-.38-3.17-.79-4.81-1.29-.86-.27-1.73-.55-2.6-.8,2.48-.12,4.91.43,7.41,2.09Zm-1.75.31c-2.38-.15-4.69-.84-6.99-1.87,2.26.24,4.57.95,6.99,1.87Zm3.17,1.13c-3.6.51-7.32-.62-10.8-2.39,3.55,1.02,7.21,1.89,10.8,2.39Zm-35.17-23.1c1.47-.7,4.45-1.59,6.05-1.23-1.41,1.35-4.49,1.68-6.05,1.23Zm5.69-3.4c-2.52-.02-5.14.15-7.71-.25,2.82-1.21,5.44-1.13,7.71.25Zm-.11.91c-2.69.56-5.49.64-8.43.14,2.79-.44,5.55-.52,8.43-.14Zm-3.33,1.14c-2.63,1.06-5.03,1.05-7.41.03,2.45-.42,4.93-.29,7.41-.03Zm-42.69-7.33c3.33-1.69,6.39-4.02,9.05-6.36-1.8,3.85-4.7,6.4-9.05,6.36Zm1.52-2c1.56-1.41,2.89-2.6,4.98-4.25.93-.74,1.88-1.45,2.79-2.21-1.84,3.34-4.47,5.33-7.77,6.46Zm1-2.25c1.81-2.5,5.25-5.83,8.32-7.46-1.95,2.91-5.75,5.51-8.32,7.46Zm7.08-7.46c-3.74,3.04-7.55,6.24-10.64,10,1.98-4.98,5.92-8.25,10.64-10Zm-14.63-.61c-1.58,3.49-2.03,4.02-3.29,5.95-.16-.48,1.32-4.2,3.29-5.95Zm1.59-.53c-.32,3.63-1.72,6.73-5.16,8.66,1.58-2.96,3.38-5.85,5.16-8.66Zm-28.5,15.29c2.52-2.6,4.84-5.42,7.23-8.19-1.31,3.61-3.92,6.65-7.23,8.19Zm3.12-1.33c1.89-1.98,3.65-4.38,5.06-6.7-.83,2.82-2.71,5-5.06,6.7Zm4.16-8.7c-2.08,1.98-3.82,3.05-5.7,4.82,1.42-2.1,3.2-3.83,5.7-4.82Zm-.81,1.42c-2,2.81-4.46,5.31-6.91,7.9,1.93-3.04,3.96-5.86,6.91-7.9Zm-28.49,12.11c.32-2.14,1.09-4.32,2.44-6.36-.31,2.28-1.03,4.41-2.44,6.36Zm-1.41.03c.36-2.52,3.37-11.8,3.85-10.69.42.97-2.86,8.42-3.85,10.69Zm-.85-3.09c.28-.75.68-1.72,1.01-2.42.31-.66,1.17-2.42,1.63-3.02-.17.69-.5,1.67-.61,1.92-.15.35-.32.69-.46,1.04-.24.58-.4.96-.84,2.21-.26.74-.51,1.49-.73,2.24-.21.7-.59,1.48-.62,2.21.06-1.55.09-2.73.62-4.18Zm-7.17,6.45c0,3.92-.79,4.67-1.8,6.34.45-1.72,1.25-4.6,1.8-6.34Zm-1.01-1.21c.27,2.21-1.09,6.01-1.96,7.74.38-1.9,1.71-9.78,1.96-7.74Zm-2.93,5.19c.16-.6.32-1.28.54-1.87.21-.55.87-1.84,1.2-2.35-.08.55-.21,1.14-.28,1.35-.09.29-.21.56-.3.85-.19.6-.42,1.41-.58,2.01-.05.21-.49,1.88-.54,2.09-.15,0-.16-.96-.24-.83.06-.28.11-.96.19-1.24Zm17.18,61.84c.14-.42.14-.98.14-1.4,0-1.68.14-3.08.28-4.76.56-5.74,1.26-10.22,2.24-13.86,1.82-6.86,5.88-11.62,9.52-11.62,2.66,0,4.06,1.82,4.06,5.46,0,4.48-1.82,10.36-5.18,15.68-2.52,4.06-4.9,6.44-11.06,11.2v-.7Zm-7.7,6.3l-.28,1.96c-1.96,11.2-4.2,18.9-7.42,25.48-5.46,11.06-15.4,17.64-27.02,17.64-19.46,0-35.84-17.92-35.84-39.2,0-19.88,14-36.96,32.9-40.04-1.68,3.92-2.24,6.72-2.24,10.5,0,14.42,12.18,25.48,28,25.48,1.96,0,3.36,0,6.16-.42-4.62,13.3-14.56,21.42-26.04,21.42-10.22,0-19.04-8.82-19.04-19.32,0-2.38.28-4.06,1.26-7.14l-1.4-.42c-1.12,2.94-1.4,4.76-1.4,7.56,0,12.04,9.38,21.14,21.98,21.14,9.1,0,17.36-4.34,22.12-11.62,2.24-3.5,3.5-6.58,4.9-11.9,1.4-.42,1.96-.56,3.36-1.12Zm-32.48-34.72c15.4,0,28,12.32,28,27.58,0,2.24-.28,3.78-.84,6.86-2.66.42-3.92.56-6.02.56-15.26,0-26.6-10.22-26.6-23.8,0-3.92.7-6.72,2.8-11.06,1.12-.14,2.1-.14,2.66-.14Zm27.49-16.2c-3.02.39-6.11.75-9.36.9,2.91-.89,6.33-1.41,9.36-.9Zm-.1.8c-2.7,1.11-5.5,1.36-8.36.99-.01-.05-.03-.09-.07-.12,2.82-.41,5.65-.68,8.42-.87Zm-2.7-1.97c-2.57.88-5.05,1.36-7.1,1.32,2.13-1.43,4.59-1.7,7.1-1.32Zm-7.31,3.42c2.22.18,3.18.28,6.16.36-2.08.93-4.15.96-6.24-.36.03,0,.05,0,.08,0Zm37.74-15.51c2.14,1.87,4.62,3.64,6.83,5.3-2.57-.74-4.97-2.33-6.83-5.3Zm2.37.8c0-.1-.03-.21-.11-.32-.09-.12-.19-.23-.28-.34,2.67,1.46,5.26,3.27,7.85,5-2.49-.67-5.11-2.35-7.46-4.34Zm7.5,3.22c-3.05-1.91-6.03-3.67-8.79-5.7,3.18.8,5.98,3.09,8.79,5.7Zm-3.51-4.35c-2.28-1.04-4.42-2.13-6.52-2.62,2.38-.23,4.51.87,6.52,2.62Zm21.15-10.3c2.92,1.21,5.53,2.88,7.4,5.48-2.51-1.78-4.93-3.77-7.5-5.44.03-.01.07-.03.1-.04Zm6.89,6.26c-2.99-1.1-5.17-2.83-7.11-4.97,2.5,1.45,4.88,3.05,7.11,4.97Zm23.74,18.29c-.58-3.28-1.25-6.64-2.06-9.87,2.03,2.82,2.52,6.15,2.06,9.87Zm-1.33-1.01c-1.92-1.98-1.54-6.33-1.17-6.7.79,2.14,1.29,4.33,1.17,6.7Zm9.76-5.18c1.75,2.55,3.49,5.2,4.82,8.2-2.41-2.65-3.45-4.67-4.82-8.2Zm2.72,2.89c-1.19-1.84-1.88-3.44-2.94-5.35,2.72,2.54,4.58,5.29,5.25,8.64-.99-1.01-1.54-2.09-2.31-3.29Zm2.76,1.23c-1.59-3.36-3.79-6.44-6.48-8.96,3.75,1.65,5.55,5.1,6.48,8.96Zm-1.22,5.23c-3.91-3.16-6.51-7.6-6.81-12.92,1.68,4.53,4.23,8.78,6.81,12.92Zm36.17,18.33c-.77-2.65-1.55-5.52-2.34-8.07,2.23,2.18,2.94,4.96,2.34,8.07Zm-1.03,3.38c-.72-3.26-1.59-6.78-2.12-10.74,1.71,3.33,3.05,7.31,2.12,10.74Zm-3.03-10.34c1.03,3.44,1.61,6.9,2.09,10.31-1.49-3.14-2.53-6.47-2.09-10.31Zm-.46,6.06c-1.36-2.22-1.48-4.75-.22-7.54-.22,2.52.13,5.03.22,7.54Zm1.57-14.8c2.25,2.07,4.73,3.97,7.01,6.02-3.27-.65-5.38-3.02-7.01-6.02Zm1.53.07c2.92.91,4.94,2.59,6.07,5.31-2.23-1.59-4.21-3.37-6.07-5.31Z"/>
  </g>
  <g>
    <path class="cls-1" d="m86.15,153.47c.05,2.29-.29,4.3-1.91,6.06-1.74,1.88-4.35,2.95-6.91,2.95-5.05,0-9.34-4.25-9.34-9.27s4.27-9.42,9.49-9.42c3.31,0,5.99,1.64,7.89,4.25l-.94.75c-1.62-2.41-4.08-3.91-7.03-3.91-4.44,0-8.26,3.89-8.26,8.26s3.72,8.26,8.26,8.26c1.96,0,3.86-.8,5.36-2,1.57-1.33,2.15-2.85,2.22-4.83h-6.52v-1.09h7.68Z"/>
    <path class="cls-1" d="m102.06,144.03h1.16v11.35c0,1.86,0,3.45-1.23,4.97-1.23,1.4-3.11,2.12-4.95,2.12s-3.72-.72-4.95-2.12c-1.23-1.52-1.23-3.11-1.23-4.97v-11.35h1.16v11.01c0,1.64,0,3.38.94,4.59.89,1.16,2.68,1.76,4.08,1.76s3.19-.6,4.08-1.76c.94-1.21.94-2.95.94-4.59v-11.01Z"/>
    <path class="cls-1" d="m110.17,161.15h4.64v1.09h-5.79v-18.2h1.16v17.12Z"/>
    <path class="cls-1" d="m119.2,144.03h3.28c2.66,0,4.76.43,6.76,2.29,1.91,1.79,2.9,4.23,2.9,6.83s-.97,4.9-2.8,6.66c-2,1.93-4.15,2.41-6.86,2.41h-3.28v-18.2Zm3.26,17.12c2.39,0,4.37-.48,6.11-2.2,1.55-1.55,2.41-3.62,2.41-5.79,0-2.32-.92-4.49-2.63-6.06-1.74-1.57-3.62-1.98-5.89-1.98h-2.1v16.03h2.1Z"/>
    <path class="cls-1" d="m143.61,147.03c-.82-1.3-1.98-2.15-3.69-2.15-1.96,0-3.43,1.57-3.43,3.48s1.81,2.7,3.28,3.4l3.48,1.81c1.38.87,2.08,1.98,2.08,3.62,0,3.02-2.75,5.29-5.7,5.29-2.54,0-4.51-1.57-5.36-3.91l1.01-.46c.77,1.93,2.2,3.28,4.39,3.28,2.39,0,4.49-1.88,4.49-4.3,0-2.05-2.1-2.92-3.67-3.69l-3.28-1.74c-1.21-.75-1.88-1.81-1.88-3.26,0-2.7,1.93-4.61,4.66-4.61,1.83,0,3.57.99,4.44,2.56l-.82.68Z"/>
    <path class="cls-1" d="m164.67,147.17h-.05l-6.35,15.67-6.33-15.67h-.05l-3.11,15.07h-1.11l3.91-18.81,6.69,16.56,6.71-16.56,3.91,18.81h-1.11l-3.11-15.07Z"/>
    <path class="cls-1" d="m173.55,145.12v6.62h7.34v1.09h-7.34v8.33h7.53v1.09h-8.69v-18.2h8.69v1.09h-7.53Z"/>
    <path class="cls-1" d="m185.96,144.03h3.28c2.66,0,4.76.43,6.76,2.29,1.91,1.79,2.9,4.23,2.9,6.83s-.97,4.9-2.8,6.66c-2,1.93-4.15,2.41-6.86,2.41h-3.28v-18.2Zm3.26,17.12c2.39,0,4.37-.48,6.11-2.2,1.55-1.55,2.41-3.62,2.41-5.79,0-2.32-.92-4.49-2.63-6.06-1.74-1.57-3.62-1.98-5.89-1.98h-2.1v16.03h2.1Z"/>
  </g>
</svg>